<svg width="64" height="63" viewBox="0 0 64 63" fill="none" xmlns="http://www.w3.org/2000/svg">
<path d="M36.1324 61.4835L32.4227 59.6804C31.8931 59.4246 31.6394 58.8077 31.8309 58.2484L33.0816 54.5795L33.7778 52.5331C33.7778 52.5331 37.2364 51.1814 38.9123 55.0259L37.6268 56.7162L36.5203 58.1707C37.5994 58.5669 38.1539 59.5575 37.6044 60.9218C37.3707 61.5011 36.6919 61.7544 36.1324 61.4835Z" fill="white"/>
<path d="M36.6073 61.6542C36.4358 61.6542 36.2642 61.6165 36.1051 61.5388L32.3953 59.7357C31.8384 59.4648 31.5698 58.8153 31.7712 58.2259L33.728 52.4855L33.7554 52.4755C33.7902 52.4629 37.2886 51.1463 38.9694 55.0009L38.9844 55.036L36.6222 58.1432C37.1494 58.3563 37.5323 58.7049 37.7312 59.1563C37.955 59.6654 37.9326 60.2849 37.6641 60.9469C37.5472 61.2404 37.3184 61.4636 37.025 61.5764C36.8883 61.6291 36.7466 61.6542 36.6073 61.6542ZM33.825 52.5833L31.8881 58.2686C31.7066 58.7977 31.9478 59.3795 32.45 59.6228L36.1598 61.4259C36.4134 61.5488 36.7118 61.5614 36.9778 61.4585C37.2389 61.3557 37.4428 61.1576 37.5472 60.8968C37.8008 60.2648 37.8257 59.6805 37.6168 59.204C37.4229 58.7626 37.0375 58.4241 36.5004 58.2284L36.4208 58.1984L38.8426 55.0159C37.2613 51.4498 34.1706 52.4579 33.825 52.5833Z" fill="#1B1B1B"/>
<g opacity="0.3">
<path opacity="0.3" d="M38.6537 55.8987L37.3682 57.5889C37.1768 57.3658 37.0326 57.0498 36.943 56.626C35.6302 57.0147 34.6456 56.8015 34.3298 55.357C33.7406 55.5 33.2284 55.5451 32.8206 55.4523L33.5168 53.406C33.5193 53.4085 36.9779 52.0568 38.6537 55.8987Z" fill="#1B1B1B"/>
</g>
<path d="M36.3737 58.5847C36.1598 58.5546 35.9783 58.4945 35.8092 58.4468C35.6426 58.3992 35.476 58.3515 35.2871 58.3239C35.0981 58.2938 34.8942 58.2763 34.6828 58.2612C34.4715 58.2436 34.2527 58.2361 34.0239 58.206H34.0214C33.9841 58.201 33.9593 58.1684 33.9643 58.1308C33.9667 58.1107 33.9767 58.0957 33.9916 58.0856C34.1806 57.9527 34.377 57.8424 34.5859 57.7496C34.7947 57.6568 35.016 57.5815 35.2547 57.5339C35.4934 57.4887 35.757 57.4737 36.0081 57.5188C36.2568 57.564 36.4806 57.6467 36.6695 57.7646C36.8784 57.895 36.9431 58.1709 36.8138 58.3816C36.7193 58.5371 36.5427 58.6123 36.3761 58.5898L36.3737 58.5847Z" fill="#1B1B1B"/>
<path d="M36.6073 62.0304C36.3785 62.0304 36.1523 61.9802 35.9459 61.8774L32.2337 60.0743C31.5077 59.7207 31.1571 58.873 31.4182 58.1056L33.365 52.3928C33.4421 52.1645 33.6907 52.0417 33.917 52.1194C34.1433 52.1972 34.2651 52.4479 34.188 52.6761L32.2412 58.389C32.1218 58.7376 32.281 59.1213 32.6116 59.2818L36.3238 61.0849C36.4879 61.1652 36.6744 61.1727 36.8435 61.105C37.0076 61.0398 37.1369 60.9169 37.2015 60.7539C37.5944 59.7834 37.3432 59.011 36.5153 58.6373C36.2965 58.5395 36.197 58.2787 36.2965 58.058C36.3959 57.8373 36.652 57.737 36.8708 57.8373C38.1289 58.4041 38.574 59.6806 38.0071 61.0849C37.8505 61.4737 37.5471 61.7721 37.1568 61.9251C36.9777 61.9953 36.7937 62.0304 36.6073 62.0304Z" fill="#1B1B1B"/>
<path d="M36.5203 58.6096C36.4283 58.6096 36.3338 58.5795 36.2567 58.5194C36.0653 58.3714 36.0305 58.0955 36.1772 57.9049L38.5691 54.7602C38.7158 54.5671 38.9893 54.532 39.1782 54.6799C39.3697 54.8279 39.4045 55.1037 39.2578 55.2943L36.8659 58.4391C36.7813 58.552 36.6521 58.6096 36.5203 58.6096Z" fill="#1B1B1B"/>
<path d="M18.4217 56.7239L15.0626 54.3189C14.5853 53.9753 14.4361 53.3258 14.717 52.8067L16.5594 49.4035L17.5863 47.505C17.5863 47.505 21.2189 46.7577 22.2334 50.8305L20.6843 52.2775L19.3516 53.5239C20.3487 54.0982 20.7316 55.1691 19.9608 56.4205C19.6376 56.9522 18.9265 57.0876 18.4217 56.7239Z" fill="white"/>
<path d="M19.0558 56.9896C18.8171 56.9896 18.5834 56.9144 18.387 56.774L15.0278 54.3689C14.5231 54.0078 14.3665 53.3232 14.6623 52.7765L17.5466 47.4473L17.5739 47.4423C17.6112 47.4348 21.2786 46.7301 22.2931 50.8153L22.303 50.8504L19.4561 53.5138C19.941 53.8122 20.2592 54.221 20.3786 54.7C20.5153 55.2392 20.3885 55.8461 20.0131 56.453C19.849 56.7213 19.5879 56.9044 19.2771 56.9671C19.2075 56.9821 19.1304 56.9896 19.0558 56.9896ZM17.6286 47.5602L14.7717 52.8366C14.5057 53.3282 14.6449 53.9426 15.0999 54.2686L18.4591 56.6736C18.6903 56.8392 18.9812 56.9019 19.2597 56.8442C19.5357 56.789 19.7669 56.626 19.9136 56.3878C20.2692 55.8084 20.391 55.2367 20.2642 54.7301C20.1448 54.2611 19.8216 53.8624 19.3268 53.579L19.2522 53.5363L22.1688 50.8078C21.214 47.0661 17.9668 47.505 17.6286 47.5602Z" fill="#1B1B1B"/>
<g opacity="0.3">
<path opacity="0.3" d="M21.5994 51.6128L20.1424 53.1551C19.9758 52.9143 19.8664 52.5833 19.8216 52.152C18.4765 52.3977 17.5192 52.0792 17.3576 50.6071C16.7584 50.6849 16.2412 50.6748 15.8484 50.5394L16.7584 48.5808C16.7584 48.5833 20.3388 47.6103 21.5994 51.6128Z" fill="#1B1B1B"/>
</g>
<path d="M19.1428 53.9073C18.9365 53.8421 18.7674 53.7518 18.6107 53.6766C18.4541 53.6014 18.2975 53.5286 18.1159 53.466C17.9369 53.4033 17.7355 53.3531 17.5316 53.303C17.3253 53.2478 17.1114 53.2052 16.8926 53.135H16.8901C16.8553 53.1249 16.8354 53.0873 16.8454 53.0522C16.8504 53.0346 16.8653 53.0196 16.8802 53.0121C17.0891 52.9143 17.3004 52.8391 17.5217 52.7814C17.743 52.7262 17.9717 52.6886 18.2179 52.6811C18.4591 52.6761 18.7226 52.7061 18.9638 52.7939C19.2025 52.8817 19.4089 52.9995 19.5755 53.1475C19.7595 53.3105 19.7769 53.5938 19.6153 53.7794C19.4959 53.9173 19.3094 53.9625 19.1478 53.9098L19.1428 53.9073Z" fill="#1B1B1B"/>
<path d="M19.0558 57.3658C18.74 57.3658 18.4292 57.268 18.1706 57.0824L14.8115 54.6774C14.1526 54.2059 13.9487 53.3131 14.3366 52.5984L17.2084 47.2969C17.3227 47.0837 17.5888 47.006 17.7977 47.1213C18.009 47.2367 18.0861 47.505 17.9717 47.7157L15.0999 53.0172C14.9234 53.3407 15.0178 53.747 15.3162 53.9602L18.6754 56.3652C18.8245 56.473 19.0061 56.5106 19.1851 56.473C19.3591 56.4379 19.5058 56.3351 19.5978 56.1871C20.1448 55.2968 20.028 54.4943 19.2746 53.9852C19.0757 53.8498 19.021 53.579 19.1552 53.3758C19.2895 53.1752 19.558 53.12 19.7594 53.2555C20.9057 54.0279 21.1319 55.3595 20.3388 56.6485C20.12 57.0047 19.7719 57.2479 19.3591 57.3332C19.2572 57.3557 19.1552 57.3658 19.0558 57.3658Z" fill="#1B1B1B"/>
<path d="M19.3566 53.9651C19.2398 53.9651 19.1229 53.9174 19.0384 53.8246C18.8743 53.6466 18.8842 53.3682 19.0608 53.2052L21.9425 50.5093C22.1191 50.3438 22.3951 50.3538 22.5567 50.5319C22.7208 50.7099 22.7108 50.9883 22.5343 51.1513L19.6525 53.8472C19.568 53.925 19.4611 53.9651 19.3566 53.9651Z" fill="#1B1B1B"/>
<path d="M63.3212 42.8203C62.901 43.7031 62.0805 44.3225 61.1332 44.5432L60.258 44.7463L50.2751 47.0585C48.5471 44.0416 52.7168 42.1532 52.7168 42.1532L55.6184 41.8623L57.1525 41.7093C57.5428 40.7037 58.7761 40.3451 59.3132 40.8592C60.984 39.021 64.5321 40.2874 63.3212 42.8203Z" fill="white"/>
<path d="M50.2427 47.1313L50.2203 47.0911C49.7827 46.3262 49.6808 45.5664 49.917 44.8291C50.464 43.1238 52.5998 42.1382 52.6918 42.0981L52.7117 42.0931L57.1102 41.6517C57.329 41.125 57.7989 40.7238 58.3509 40.6009C58.7288 40.5156 59.0744 40.5783 59.3106 40.7739C60.3127 39.7207 61.9064 39.7382 62.8264 40.3677C63.6469 40.9294 63.8533 41.8573 63.3784 42.8529C62.9557 43.7382 62.1426 44.3802 61.1481 44.6084L50.2427 47.1313ZM52.7341 42.2134C52.5824 42.2862 50.5486 43.2667 50.0364 44.8667C49.8151 45.5563 49.9071 46.2686 50.3074 46.9883L61.1232 44.483C62.0805 44.2623 62.8612 43.6454 63.269 42.7952C63.7141 41.8623 63.5251 40.9921 62.7593 40.468C61.8691 39.8586 60.3176 39.8511 59.3628 40.9018L59.3206 40.9495L59.2758 40.9069C59.0695 40.7087 58.7437 40.6435 58.3807 40.7238C57.9705 40.8166 57.4508 41.1301 57.2146 41.7344L57.1997 41.7695L52.7341 42.2134Z" fill="#1B1B1B"/>
<g opacity="0.3">
<g opacity="0.3">
<path opacity="0.3" d="M60.258 44.7463L50.2751 47.0585C48.5471 44.0416 52.7167 42.1532 52.7167 42.1532L55.6184 41.8623C53.9823 44.5607 56.2275 45.12 60.2505 44.7012L60.258 44.7463Z" fill="#1B1B1B"/>
</g>
<g opacity="0.3">
<path opacity="0.3" d="M50.2427 47.1313L50.2203 47.0912C49.7827 46.3263 49.6808 45.5664 49.917 44.8291C50.464 43.1237 52.5998 42.1381 52.6918 42.098L52.7117 42.093L55.7376 41.7896L55.673 41.8974C55.1335 42.7877 55.0066 43.4748 55.2951 43.9363C55.7774 44.7087 57.3961 44.9369 60.2455 44.641L60.3051 44.636L60.33 44.799L50.2427 47.1313ZM52.7341 42.2134C52.5824 42.2861 50.5486 43.2667 50.0364 44.8667C49.8151 45.5564 49.9071 46.2686 50.3074 46.9884L59.6761 44.8191C57.135 45.0297 55.6655 44.7614 55.1906 44.0015C54.8873 43.515 54.9917 42.8203 55.5039 41.9375L52.7341 42.2134Z" fill="#1B1B1B"/>
</g>
</g>
<path d="M11.6562 38.0504C3.24971 35.4573 0.656403 28.167 0.656403 28.167C-0.0124373 25.4811 0.924934 23.9087 2.13581 23.6353C2.72011 23.5049 3.31685 23.7607 3.69478 24.2297C4.70425 25.4786 5.92507 25.5263 7.29011 24.7488C8.63276 23.9513 9.71434 24.0767 10.5299 25.1601C11.3181 26.3162 12.3251 26.7852 13.4688 26.8203L13.8915 28.1068L12.5737 33.9777L11.6562 38.0504Z" fill="#E07153"/>
<path d="M43.7333 40.0843C43.7333 40.0843 43.5269 42.1131 45.5683 43.7558C46.1028 44.1871 46.906 44.0467 47.2565 43.4548C48.542 41.2906 47.3709 39.5827 45.8965 38.9808" fill="#C95C3F"/>
<path d="M46.2794 44.0718C46.0084 44.0718 45.7423 43.979 45.5285 43.8085C43.4847 42.1633 43.6687 40.1019 43.6712 40.0818L43.7955 40.0944C43.793 40.1144 43.6165 42.1107 45.6056 43.7107C45.8492 43.9063 46.165 43.9865 46.4758 43.9314C46.7816 43.8762 47.0452 43.6931 47.2018 43.4273C47.7364 42.5245 47.8781 41.6241 47.6121 40.8241C47.3535 40.0492 46.7046 39.3846 45.8716 39.0436L45.9189 38.9282C46.7841 39.2818 47.4629 39.974 47.7314 40.784C48.0099 41.6216 47.8632 42.5571 47.3088 43.4925C47.1322 43.7884 46.8363 43.9941 46.4982 44.0542C46.4236 44.0643 46.3515 44.0718 46.2794 44.0718Z" fill="#1B1B1B"/>
<path d="M51.916 42.6448C52.2169 43.9288 51.7668 44.7689 50.4739 45.1075C51.098 46.3238 50.4167 47.209 49.1437 47.9463C50.0065 49.5062 48.8926 49.9952 47.5822 50.3739C48.3356 51.6203 47.7936 52.3451 46.4236 52.7388C46.6996 55.6128 45.618 56.3626 43.701 55.8009C42.7462 57.0974 40.8988 56.8893 40.5059 55.2216C39.2453 56.0441 38.2309 56.0692 37.6516 54.6498C36.4307 55.2717 35.4237 55.2416 34.8544 53.8774C33.5366 54.4667 32.5395 54.4366 32.1666 53.1777C30.8363 53.9777 29.7249 54.0755 29.0262 52.8717C27.9571 53.4009 27.1217 53.0648 26.4478 52.1194C26.4354 52.0993 26.423 52.0818 26.4081 52.0642C26.3733 52.0843 26.3409 52.1043 26.3061 52.1244C25.4583 52.5959 24.675 52.6059 23.954 52.1645C23.6631 51.9865 23.3796 51.7357 23.1061 51.4097C21.7983 51.8887 20.7366 51.6153 19.9932 50.3739C18.8991 51.1714 18.0662 51.0235 17.6535 49.3382C16.4674 50.3338 15.5574 49.9476 14.8239 48.6862C13.2724 49.3984 12.5737 49.2053 11.982 47.5652C10.9253 47.8159 10.0998 47.3068 11.1068 45.2479C10.3061 44.3852 10.336 43.683 11.1242 43.1288C10.5598 41.7445 10.4106 40.5658 11.6563 40.0692C11.1242 39.2166 11.1565 38.4191 11.9994 37.6943C11.8452 36.799 11.7955 35.8962 12.0392 35.1664C12.2157 34.6398 12.5439 34.2009 13.1009 33.9225L14.0656 27.9589C12.9368 27.0385 13.6876 25.9276 14.0755 25.4812C14.1849 25.3533 14.267 25.2806 14.267 25.2806C13.5434 24.2423 13.6155 23.4649 14.8662 23.0737C13.6876 21.9376 14.1228 21.1577 15.54 20.5934C13.6976 19.3846 14.4858 17.8323 16.0298 18.1934C14.1153 17.0223 15.1869 15.49 16.5221 15.0787C14.8364 14.2887 15.5077 11.6756 17.0965 11.3044C15.6544 10.6774 15.8409 9.10503 17.2432 8.38779C15.724 7.70817 16.0075 6.43669 17.4496 5.84485C15.7041 3.87369 17.5938 1.46366 19.4437 2.65739C20.6769 1.253 22.0221 0.656139 23.7228 2.68498C24.7944 1.29062 26.0351 0.926985 27.5568 2.33137C29.2227 1.03984 30.7245 1.2204 32.0696 2.79783C32.736 2.16585 33.3899 1.76711 34.0314 1.63169C35.098 1.40598 36.1199 1.91256 37.0971 3.27682C39.1459 2.24611 40.1404 2.81037 40.4189 4.45551C42.0873 3.5251 43.4523 3.56523 44.0317 6.10315C45.6752 5.21036 46.9035 5.27557 47.1894 7.5276C49.1512 6.68246 50.4267 7.23168 50.9737 9.2555C52.4009 8.56835 53.1916 9.06992 53.393 10.6724C55.1434 10.1984 55.7923 11.1439 55.668 13.09C57.6596 13.9652 57.3662 14.7903 55.7625 15.5878C57.4334 16.2348 57.6174 17.1401 56.312 18.3088C57.2543 18.8856 57.1226 19.6454 56.4587 20.4956L54.748 28.9294C55.9589 29.8122 55.7898 30.2611 54.2856 31.2291C55.1135 31.9865 55.0713 32.7965 53.8803 33.6718C54.7704 34.2435 55.0489 34.878 53.8505 35.678L51.916 42.6448Z" fill="white"/>
<path d="M42.152 56.7062C42.0351 56.7062 41.9182 56.6937 41.8014 56.6711C41.1574 56.5382 40.6626 56.0366 40.4687 55.3219C39.7203 55.7959 39.1136 55.9514 38.6163 55.7934C38.2011 55.663 37.8679 55.3068 37.6242 54.7376C36.8833 55.1037 36.289 55.194 35.8042 55.0159C35.3939 54.863 35.0657 54.5094 34.8245 53.9626C33.9717 54.3363 33.3302 54.4115 32.8628 54.1934C32.5296 54.0379 32.2834 53.7294 32.1343 53.273C31.2889 53.7695 30.6026 53.9401 30.0382 53.7921C29.6255 53.6843 29.2799 53.4034 29.0064 52.9545C27.9944 53.4335 27.1192 53.1652 26.4031 52.157L26.3956 52.147C26.3782 52.157 26.3608 52.167 26.3434 52.1771C25.4807 52.6586 24.6676 52.6711 23.9242 52.2197C23.6382 52.0442 23.3573 51.7984 23.0887 51.4849C21.7411 51.9639 20.6943 51.6203 19.9758 50.4667C19.4064 50.868 18.9389 50.9934 18.5486 50.8504C18.1284 50.6949 17.8225 50.236 17.6187 49.451C17.104 49.8598 16.6191 50.0279 16.1716 49.9476C15.6668 49.8573 15.2193 49.4711 14.7991 48.7664C13.9562 49.1476 13.4067 49.2304 12.9766 49.0473C12.5588 48.8692 12.2381 48.4354 11.9422 47.6379C11.4076 47.7532 10.9924 47.663 10.7686 47.3796C10.4603 46.9884 10.5498 46.2536 11.0322 45.2579C10.6145 44.799 10.423 44.3702 10.4628 43.9865C10.4976 43.663 10.694 43.367 11.0471 43.1062C10.6269 42.063 10.5349 41.3307 10.7587 40.799C10.8979 40.4655 11.1689 40.2097 11.5643 40.0366C11.0347 39.1438 11.159 38.3464 11.9323 37.6667C11.7532 36.6034 11.7682 35.7783 11.9795 35.1439C12.171 34.5721 12.529 34.1457 13.0437 33.8799L13.996 27.984C13.6379 27.6856 13.4415 27.3395 13.4092 26.9558C13.3545 26.3163 13.7722 25.732 14.0258 25.441C14.0929 25.3658 14.1477 25.3081 14.1825 25.273C13.7871 24.6912 13.6578 24.2197 13.7896 23.831C13.904 23.4925 14.2272 23.2266 14.7469 23.0461C14.2645 22.5595 14.0606 22.1106 14.1377 21.7144C14.2222 21.2755 14.6375 20.9044 15.4058 20.5809C14.4311 19.9037 14.2869 19.174 14.4808 18.71C14.6673 18.2661 15.1596 18.0329 15.7514 18.0856C15.0005 17.5414 14.8886 16.9821 14.9358 16.5934C15.0129 15.9639 15.5898 15.352 16.3605 15.0661C15.729 14.7075 15.4033 14.0329 15.4853 13.2379C15.5798 12.3251 16.1591 11.5476 16.9175 11.2893C16.3705 11.0034 16.0522 10.5495 16.0348 10.0204C16.0149 9.39341 16.4202 8.77899 17.1015 8.39028C16.4874 8.08683 16.1567 7.6605 16.1641 7.18401C16.1716 6.64733 16.6117 6.14075 17.3452 5.81974C16.4302 4.73385 16.5992 3.54514 17.1537 2.88809C17.6311 2.32382 18.5163 2.01285 19.4312 2.57461C20.1995 1.71944 20.8833 1.31567 21.5795 1.31567C21.587 1.31567 21.5944 1.31567 21.6019 1.31567C22.3006 1.3232 22.9943 1.74201 23.7203 2.58965C24.3145 1.8373 24.9162 1.44608 25.5577 1.3884C26.1918 1.33323 26.8656 1.62414 27.5593 2.2536C29.2003 1.0047 30.7195 1.15768 32.0746 2.71254C32.7434 2.09059 33.3973 1.7069 34.0189 1.57649C35.1229 1.34326 36.1647 1.88997 37.117 3.20157C38.1787 2.67492 38.9768 2.56207 39.5537 2.85799C40.0137 3.09373 40.322 3.60031 40.4662 4.36269C41.4384 3.83605 42.1967 3.70815 42.7885 3.97649C43.3902 4.24733 43.8129 4.91442 44.0764 6.01536C45.0511 5.49874 45.7821 5.38087 46.3092 5.65423C46.804 5.91003 47.1098 6.49686 47.2416 7.44482C48.2337 7.03354 49.0567 6.98087 49.6907 7.28934C50.2999 7.58526 50.745 8.21974 51.016 9.17523C51.6923 8.86175 52.2418 8.81661 52.6446 9.0398C53.0648 9.27052 53.3358 9.79717 53.4477 10.6022C54.1836 10.4141 54.753 10.4793 55.1359 10.7978C55.6059 11.1865 55.8023 11.9263 55.7352 13.0574C56.6626 13.4711 57.1176 13.8849 57.13 14.3263C57.14 14.7451 56.7421 15.1589 55.9191 15.5878C56.7024 15.9138 57.1425 16.31 57.2245 16.7664C57.3066 17.2204 57.0355 17.7395 56.4214 18.3063C56.777 18.5395 56.9833 18.8179 57.0405 19.1288C57.1126 19.5276 56.9435 19.9865 56.5233 20.5282L54.8226 28.9069C55.3871 29.3232 55.6258 29.6366 55.6158 29.9476C55.6034 30.3639 55.1409 30.7551 54.39 31.2417C54.758 31.5978 54.9345 31.9614 54.9146 32.3301C54.8923 32.7714 54.5815 33.2254 53.9922 33.6743C54.477 34.0003 54.7132 34.3188 54.7157 34.6473C54.7182 35.0009 54.4547 35.3545 53.9076 35.7232L51.9832 42.6473C52.284 43.9564 51.8091 44.7965 50.5659 45.1476C51.0756 46.2159 50.638 47.1388 49.2282 47.9714C49.5167 48.5131 49.5838 48.9545 49.4346 49.3206C49.1934 49.91 48.4127 50.1959 47.6767 50.4141C47.9801 50.9432 48.0596 51.4021 47.9129 51.7808C47.7414 52.2247 47.2764 52.5532 46.4907 52.789C46.625 54.2611 46.4112 55.2115 45.8343 55.6931C45.3694 56.0818 44.6607 56.1445 43.7258 55.8786C43.3181 56.4053 42.7388 56.7062 42.152 56.7062ZM40.5457 55.1213L40.5656 55.2065C40.7347 55.9288 41.1947 56.4153 41.8262 56.5482C42.4926 56.6861 43.1913 56.3852 43.6513 55.7658L43.6761 55.7307L43.7184 55.7432C44.6309 56.0115 45.3171 55.9589 45.7547 55.5927C46.2943 55.1413 46.4982 54.1833 46.3614 52.7463L46.3565 52.6937L46.4062 52.6786C47.172 52.4579 47.6394 52.1395 47.7961 51.7332C47.9353 51.3771 47.8433 50.9307 47.5275 50.4065L47.4853 50.3363L47.5648 50.3137C48.2934 50.1031 49.089 49.8297 49.3178 49.2705C49.457 48.9294 49.3824 48.5056 49.089 47.9739L49.0592 47.9188L49.1114 47.8887C50.5411 47.0611 50.9563 46.1833 50.4167 45.1326L50.3819 45.0623L50.4565 45.0423C51.6972 44.7188 52.1547 43.9363 51.8539 42.6548L51.8489 42.6398L51.8539 42.6247L53.7933 35.6379L53.8132 35.6254C54.3279 35.2818 54.5889 34.9508 54.5864 34.6423C54.5839 34.3439 54.3403 34.0429 53.8455 33.7244L53.7684 33.6743L53.843 33.6191C54.4472 33.1752 54.763 32.7363 54.7853 32.3175C54.8027 31.9714 54.6212 31.6203 54.2433 31.2743L54.1836 31.2191L54.2533 31.174C54.9867 30.7025 55.4791 30.3113 55.489 29.9376C55.4965 29.6667 55.2652 29.3783 54.7132 28.9771L54.6809 28.9545L54.6884 28.9144L56.4015 20.4655L56.4115 20.453C56.8143 19.9363 56.9783 19.5075 56.9112 19.1414C56.8565 18.8429 56.6501 18.5846 56.2797 18.3589L56.2076 18.3138L56.2697 18.2586C56.8938 17.7019 57.1698 17.2028 57.0952 16.779C57.0181 16.3426 56.5606 15.9614 55.7401 15.6429L55.6083 15.5928L55.7352 15.5301C56.5855 15.1088 57.0107 14.7 57.0007 14.3213C56.9908 13.9351 56.5333 13.5389 55.6407 13.1476L55.6009 13.1301L55.6034 13.0849C55.673 11.9865 55.4865 11.2467 55.0514 10.8856C54.6884 10.5871 54.1364 10.5345 53.4054 10.7326L53.3358 10.7501L53.3258 10.6799C53.2264 9.87742 52.9728 9.36081 52.5774 9.14263C52.197 8.93197 51.6649 8.98965 50.9936 9.31316L50.9265 9.34576L50.9066 9.27303C50.648 8.31504 50.2178 7.68307 49.6286 7.39717C49.0119 7.09623 48.1964 7.15893 47.2068 7.58526L47.1322 7.61786L47.1223 7.5351C47.0029 6.59717 46.707 5.9978 46.2446 5.75956C45.7423 5.49874 45.0262 5.62915 44.0565 6.1583L43.9844 6.19843L43.967 6.11818C43.7159 5.01222 43.3106 4.34765 42.7313 4.08683C42.1644 3.83103 41.416 3.96896 40.4438 4.51065L40.3667 4.55329L40.3518 4.46551C40.22 3.69561 39.9316 3.19153 39.4915 2.96583C38.952 2.68997 38.1538 2.81285 37.1195 3.33448L37.0722 3.35705L37.0424 3.31442C36.1125 2.01536 35.103 1.47116 34.0413 1.69436C33.4272 1.82476 32.7782 2.21097 32.1094 2.84295L32.0622 2.88809L32.0199 2.83793C30.6747 1.26301 29.2252 1.11254 27.5916 2.379L27.5493 2.4116L27.512 2.37649C26.8308 1.74953 26.1768 1.45862 25.5677 1.50878C24.9436 1.56144 24.3568 1.96019 23.77 2.72006L23.7228 2.78025L23.673 2.72006C22.9545 1.86238 22.2757 1.44107 21.5994 1.43103C20.9181 1.42351 20.2518 1.82476 19.4909 2.69247L19.4561 2.7326L19.4114 2.70251C18.4839 2.10313 17.6684 2.46928 17.2507 2.96081C16.7012 3.61285 16.5644 4.74138 17.4968 5.79467L17.5565 5.85987L17.4745 5.89247C16.741 6.19341 16.2984 6.67492 16.2909 7.17648C16.2835 7.62789 16.6316 8.03416 17.2681 8.31755L17.3874 8.37021L17.2706 8.4304C16.5669 8.78902 16.1417 9.39341 16.1616 10.0053C16.179 10.5295 16.5271 10.9784 17.1189 11.2342L17.2929 11.3094L17.109 11.352C16.2313 11.5577 15.6892 12.4555 15.6097 13.2379C15.5276 14.0329 15.8782 14.695 16.547 15.0085L16.6937 15.0762L16.5396 15.1238C15.7464 15.3696 15.1372 15.974 15.0626 16.5934C14.993 17.1526 15.3386 17.6818 16.0622 18.1232L16.3954 18.3263L16.0149 18.2385C15.3585 18.0856 14.7891 18.2862 14.5977 18.7426C14.4236 19.1564 14.5753 19.8686 15.5724 20.5257L15.6743 20.5909L15.5624 20.636C14.7792 20.947 14.3416 21.3131 14.262 21.7219C14.1899 22.0931 14.4062 22.5269 14.9085 23.011L14.9856 23.0837L14.8836 23.1163C14.3441 23.2843 14.0159 23.5326 13.909 23.8536C13.7896 24.2047 13.9288 24.6661 14.3167 25.2279L14.349 25.273L14.3093 25.3106C14.3093 25.3106 14.2297 25.3834 14.1228 25.5062C13.8816 25.7821 13.4838 26.3363 13.536 26.9282C13.5658 27.2868 13.7573 27.6103 14.1054 27.8937L14.1327 27.9163L13.1581 33.9476L13.1307 33.9627C12.6309 34.2134 12.2853 34.6197 12.1013 35.1689C11.895 35.7909 11.8825 36.6084 12.064 37.6667L12.069 37.7018L12.0417 37.7244C11.2684 38.389 11.1615 39.1388 11.711 40.0191L11.7508 40.0818L11.6811 40.1094C11.2759 40.2699 11.0148 40.5081 10.878 40.8316C10.6667 41.3357 10.7637 42.0529 11.1864 43.0887L11.2062 43.1363L11.1665 43.1639C10.8159 43.4097 10.6244 43.6855 10.5921 43.9815C10.5548 44.3376 10.7463 44.7413 11.159 45.1877L11.1888 45.2203L11.1689 45.2605C10.5697 46.4843 10.6766 47.0385 10.8731 47.2868C11.072 47.5376 11.4623 47.6103 11.9745 47.4874L12.0292 47.4749L12.0491 47.5275C12.3376 48.3225 12.6409 48.7489 13.0337 48.9169C13.439 49.0899 13.9711 48.9971 14.809 48.6134L14.8612 48.5909L14.8886 48.6385C15.2914 49.3307 15.734 49.7244 16.2039 49.8072C16.634 49.8824 17.1139 49.7043 17.6261 49.2755L17.7032 49.2103L17.7281 49.3081C17.922 50.0981 18.2154 50.5721 18.6058 50.715C18.9613 50.8454 19.4213 50.71 19.9708 50.3087L20.0255 50.2686L20.0603 50.3263C20.7615 51.4949 21.756 51.826 23.1012 51.3344L23.141 51.3194L23.1683 51.352C23.4343 51.6705 23.7153 51.9188 24.0012 52.0918C24.7024 52.5206 25.4732 52.5056 26.2912 52.0492C26.326 52.0291 26.3584 52.009 26.3932 51.989L26.4429 51.9589L26.515 52.0642C27.2112 53.0448 28.0292 53.283 29.0138 52.7965L29.066 52.7714L29.0959 52.8216C29.3594 53.2755 29.6827 53.5463 30.0805 53.6492C30.6275 53.7896 31.3038 53.6115 32.1492 53.1025L32.2188 53.0623L32.2412 53.1401C32.3804 53.6065 32.6042 53.9075 32.9274 54.0579C33.3725 54.2636 33.9991 54.1808 34.8444 53.7996L34.9016 53.7746L34.9265 53.8347C35.1577 54.389 35.4635 54.7326 35.8589 54.878C36.3214 55.0485 36.9032 54.9507 37.6391 54.5771L37.6988 54.547L37.7237 54.6097C37.9574 55.1815 38.2732 55.5326 38.6635 55.6554C39.1384 55.8059 39.7352 55.6404 40.4836 55.1514L40.5457 55.1213Z" fill="#1B1B1B"/>
<g opacity="0.3">
<g opacity="0.3">
<path opacity="0.3" d="M26.3086 52.1243C25.4608 52.5959 24.6775 52.606 23.9565 52.1644C25.135 52.1494 25.9854 52.1318 26.3086 52.1243Z" fill="#1B1B1B"/>
</g>
<g opacity="0.3">
<path opacity="0.3" d="M25.0529 52.5482C24.6626 52.5482 24.2846 52.4378 23.9241 52.2196L23.7376 52.1068L23.9564 52.1043C25.0405 52.0917 25.8386 52.0742 26.2215 52.0642L26.5622 52.0566L26.3409 52.1795C25.8958 52.4253 25.4657 52.5482 25.0529 52.5482ZM24.1976 52.2247C24.772 52.498 25.3861 52.488 26.0351 52.1921C25.6447 52.2021 25.0107 52.2146 24.1976 52.2247Z" fill="#1B1B1B"/>
</g>
</g>
<path d="M42.152 57.0824C42.0103 57.0824 41.8685 57.0674 41.7268 57.0398C41.0853 56.9068 40.5682 56.483 40.2748 55.8686C39.5985 56.2222 39.0166 56.315 38.5044 56.1545C38.0768 56.0191 37.7237 55.7081 37.4502 55.2291C36.7615 55.51 36.1797 55.5551 35.6749 55.3695C35.2572 55.2141 34.9141 54.9031 34.648 54.4391C33.8499 54.7376 33.2109 54.7677 32.7086 54.5344C32.3904 54.3865 32.1392 54.1407 31.9528 53.7996C31.1795 54.1884 30.5206 54.3062 29.9438 54.1583C29.5236 54.0504 29.163 53.8022 28.8671 53.4184C28.1113 53.6843 27.159 53.6717 26.2887 52.6285C25.0903 53.1978 23.954 52.9545 22.9744 51.9188C21.6964 52.2974 20.6371 51.9739 19.8738 50.9783C19.3293 51.2893 18.8519 51.362 18.4193 51.204C17.9842 51.0435 17.6535 50.6623 17.4148 50.0454C16.9647 50.3037 16.5271 50.394 16.1069 50.3213C15.5649 50.226 15.0875 49.8724 14.6549 49.2404C14.0556 49.4837 13.4042 49.6416 12.8298 49.3984C12.3649 49.2028 12.0118 48.784 11.7035 48.0592C11.1689 48.1068 10.7388 47.9564 10.4752 47.6178C10.0923 47.1313 10.1321 46.3614 10.5921 45.3232C10.2141 44.8467 10.0451 44.3852 10.0923 43.9489C10.1296 43.5953 10.3012 43.2743 10.602 42.9934C10.2241 41.9727 10.1694 41.2454 10.4155 40.6561C10.5473 40.3426 10.7636 40.0868 11.062 39.8862C10.6841 39.0235 10.8432 38.221 11.5295 37.5338C11.3728 36.5532 11.1615 34.404 12.9044 33.5313C13.1208 33.4235 13.3818 33.5112 13.4887 33.7294C13.5957 33.9476 13.5086 34.2109 13.2923 34.3188C12.3922 34.7702 12.1162 35.8184 12.427 37.6216C12.4544 37.7746 12.3972 37.93 12.2803 38.0304C11.6488 38.5746 11.5717 39.1137 12.0218 39.8385C12.0914 39.9489 12.1063 40.0843 12.0665 40.2097C12.0267 40.3326 11.9323 40.4329 11.8129 40.4805C11.5071 40.6034 11.3106 40.7739 11.2162 40.9996C11.0471 41.4009 11.149 42.0429 11.5245 42.9658C11.6016 43.1564 11.5394 43.3746 11.3703 43.4924C11.1142 43.673 10.975 43.8561 10.9551 44.0416C10.9302 44.2799 11.0918 44.5959 11.4225 44.952C11.5469 45.0849 11.5742 45.283 11.4946 45.446C10.9029 46.6523 11.1093 47.0109 11.1565 47.0711C11.2559 47.1965 11.5319 47.2241 11.88 47.1413C12.0939 47.0912 12.3127 47.209 12.3873 47.4172C12.6334 48.0943 12.8796 48.468 13.1655 48.5884C13.4614 48.7137 13.9164 48.621 14.6424 48.2899C14.8463 48.1971 15.085 48.2749 15.1969 48.468C15.5425 49.0598 15.8981 49.3934 16.2561 49.4561C16.5744 49.5112 16.9498 49.3608 17.375 49.0047C17.4894 48.9068 17.646 48.8793 17.7902 48.9244C17.9319 48.9721 18.0413 49.0899 18.0762 49.2354C18.2328 49.8774 18.4615 50.2837 18.7201 50.379C19.0086 50.4868 19.4337 50.2435 19.7396 50.0228C19.839 49.9501 19.9608 49.925 20.0802 49.9476C20.1995 49.9727 20.304 50.0454 20.3661 50.1507C20.9703 51.1564 21.7933 51.4272 22.9594 50.9984C23.131 50.9357 23.3225 50.9884 23.4393 51.1263C24.2772 52.1269 25.1525 52.305 26.1893 51.6855C26.3857 51.5677 26.6393 51.6228 26.7686 51.8134C27.3678 52.6862 28.0044 52.8893 28.8348 52.478C29.0387 52.3777 29.2873 52.4504 29.4017 52.6511C29.6131 53.0147 29.8592 53.2279 30.1576 53.3056C30.5952 53.4184 31.1969 53.2504 31.9428 52.8015C32.0572 52.7313 32.1989 52.7213 32.3232 52.7689C32.4476 52.8191 32.5445 52.9219 32.5818 53.0523C32.6887 53.4109 32.8454 53.6341 33.0667 53.7369C33.4048 53.8924 33.9444 53.8072 34.6754 53.4786C34.7823 53.431 34.9041 53.4285 35.0135 53.4711C35.1229 53.5137 35.21 53.6015 35.2547 53.7094C35.4437 54.1633 35.6774 54.4366 35.9708 54.547C36.3263 54.6774 36.8236 54.5821 37.4552 54.2611C37.5646 54.2059 37.6889 54.1984 37.8033 54.241C37.9176 54.2836 38.0072 54.3714 38.0544 54.4868C38.2434 54.9482 38.4796 55.2291 38.7605 55.3169C39.1186 55.4297 39.6258 55.2742 40.2673 54.8554C40.3866 54.7777 40.5358 54.7626 40.6651 54.8153C40.7969 54.868 40.8939 54.9833 40.9262 55.1213C41.0605 55.6931 41.416 56.0793 41.8984 56.1796C42.423 56.2874 42.9775 56.0442 43.348 55.5401C43.4574 55.3921 43.6438 55.3294 43.8179 55.3796C44.6061 55.6103 45.1755 55.5827 45.5136 55.3018C45.9462 54.9407 46.1103 54.068 45.986 52.7815C45.9661 52.5708 46.0979 52.3752 46.2993 52.3175C46.9383 52.1344 47.3337 51.8837 47.4455 51.5953C47.54 51.3545 47.458 51.0185 47.2068 50.6021C47.1372 50.4843 47.1248 50.3413 47.172 50.2134C47.2218 50.0855 47.3262 49.9877 47.458 49.9501C48.1169 49.7595 48.8106 49.5112 48.9697 49.125C49.0617 48.8993 48.9921 48.5733 48.7608 48.1545C48.644 47.9438 48.7186 47.6805 48.925 47.5601C50.4988 46.6498 50.3944 45.9075 50.0861 45.3031C50.0264 45.1852 50.0215 45.0448 50.0762 44.9219C50.1309 44.799 50.2353 44.7087 50.3646 44.6761C51.4089 44.4028 51.747 43.8235 51.4934 42.7401C51.476 42.6674 51.4785 42.5921 51.4984 42.5194L53.4328 35.5576C53.4602 35.4573 53.5248 35.367 53.6118 35.3094C54.1762 34.9332 54.2185 34.705 54.216 34.6423C54.216 34.5695 54.1588 34.3664 53.6466 34.0379C53.5248 33.9601 53.4502 33.8272 53.4452 33.6818C53.4403 33.5363 53.5074 33.3984 53.6243 33.3131C54.1265 32.9445 54.4 32.5909 54.4149 32.2949C54.4274 32.0667 54.2856 31.8159 53.9947 31.5501C53.8953 31.4573 53.8431 31.3244 53.853 31.189C53.8654 31.0536 53.9375 30.9307 54.0519 30.8554C54.9694 30.2661 55.1111 30.0203 55.1161 29.9275C55.1186 29.8824 55.0763 29.7069 54.4945 29.283C54.3553 29.1827 54.2881 29.0072 54.3229 28.8391L56.0336 20.4053C56.046 20.3376 56.0758 20.2749 56.1181 20.2222C56.4413 19.8059 56.5905 19.4573 56.5458 19.2116C56.5135 19.026 56.3593 18.8479 56.0883 18.6849C55.9689 18.6122 55.8919 18.4868 55.8794 18.3489C55.867 18.2109 55.9217 18.073 56.0236 17.9802C56.5284 17.5288 56.7795 17.1275 56.7298 16.8492C56.6776 16.5608 56.2797 16.2573 55.6084 15.999C55.4468 15.9363 55.3374 15.7833 55.3299 15.6103C55.3225 15.4373 55.417 15.2742 55.5711 15.1965C56.6079 14.6824 56.6303 14.3689 56.6303 14.3338C56.6303 14.2987 56.5905 13.9777 55.494 13.4962C55.325 13.4235 55.2205 13.2504 55.233 13.0648C55.2926 12.1069 55.1509 11.4548 54.8152 11.179C54.5517 10.9608 54.1091 10.9332 53.5024 11.0987C53.3806 11.1313 53.2513 11.1112 53.1469 11.0385C53.0424 10.9658 52.9728 10.8554 52.9579 10.73C52.9007 10.2661 52.7565 9.67174 52.4009 9.47613C52.0653 9.29055 51.5406 9.47111 51.1577 9.65669C51.0409 9.71187 50.9066 9.71437 50.7898 9.6592C50.6729 9.60403 50.5859 9.50121 50.5511 9.37582C50.3223 8.52817 49.9568 7.97644 49.4695 7.7382C48.9548 7.48742 48.2437 7.55262 47.356 7.93381C47.2292 7.98647 47.0875 7.97895 46.9682 7.91124C46.8488 7.84353 46.7692 7.72315 46.7518 7.58522C46.6499 6.7777 46.4211 6.27613 46.073 6.09557C45.6951 5.89995 45.076 6.03287 44.2306 6.4918C44.1113 6.55701 43.9671 6.56202 43.8452 6.50434C43.7209 6.44666 43.6314 6.33632 43.6016 6.2034C43.3803 5.23287 43.0372 4.63851 42.5772 4.43036C42.1246 4.22723 41.4856 4.36014 40.6229 4.84165C40.4985 4.90936 40.3518 4.91437 40.225 4.85168C40.0982 4.78898 40.0087 4.67111 39.9838 4.53068C39.8744 3.88365 39.6507 3.47237 39.3225 3.30184C38.8998 3.08616 38.1961 3.21406 37.2861 3.67049C37.0946 3.76579 36.8634 3.70811 36.7391 3.53506C36.0727 2.60466 35.3815 2.09807 34.6804 2.03036C33.9767 1.96265 33.1985 2.32879 32.363 3.12127C32.276 3.20403 32.1591 3.24666 32.0423 3.23914C31.9229 3.23162 31.8135 3.17895 31.7365 3.08616C30.533 1.67676 29.2898 1.54635 27.8229 2.6824C27.6563 2.81281 27.4201 2.80278 27.2634 2.65732C26.6617 2.10309 26.1047 1.84478 25.6025 1.88742C25.0953 1.93005 24.5781 2.29118 24.0659 2.95575C23.9863 3.06108 23.862 3.12378 23.7302 3.12629C23.6009 3.12629 23.4741 3.07111 23.3896 2.9708C22.7531 2.21093 22.1489 1.82221 21.5969 1.81469C21.5919 1.81469 21.587 1.81469 21.582 1.81469C21.0275 1.81469 20.4507 2.17582 19.7719 2.95074C19.6302 3.11124 19.3915 3.14635 19.2124 3.02848C18.4889 2.55952 17.8723 2.81782 17.5366 3.21657C17.0915 3.74321 16.9946 4.67111 17.7778 5.55387C17.8723 5.6592 17.9096 5.80716 17.8772 5.9451C17.8449 6.08303 17.7479 6.19839 17.6187 6.25356C17.0468 6.4893 16.6738 6.85795 16.6688 7.19651C16.6639 7.4824 16.9399 7.77331 17.4247 7.98898C17.5789 8.05669 17.6783 8.20967 17.6833 8.3777C17.6883 8.54823 17.5938 8.70372 17.4446 8.78146C16.8727 9.07488 16.5246 9.54384 16.5396 10.0078C16.552 10.3865 16.8106 10.7025 17.273 10.9031C17.4446 10.9783 17.5515 11.1564 17.5341 11.3445C17.5167 11.5326 17.3824 11.6905 17.1985 11.7332C16.4898 11.8987 16.0522 12.641 15.9851 13.2906C15.9528 13.5915 15.9627 14.3313 16.7086 14.6824C16.8727 14.7601 16.9722 14.9282 16.9598 15.1112C16.9473 15.2918 16.8255 15.4473 16.6539 15.5C16.0075 15.7006 15.4953 16.1871 15.4356 16.6586C15.3734 17.1652 15.8483 17.5689 16.2586 17.8197C16.4426 17.9326 16.5172 18.1608 16.4351 18.3614C16.3556 18.562 16.1417 18.6724 15.9329 18.6247C15.458 18.5144 15.0601 18.6272 14.9408 18.9106C14.814 19.2116 15.0228 19.7357 15.7762 20.2297C15.913 20.32 15.9876 20.478 15.9727 20.641C15.9553 20.804 15.8508 20.9445 15.6992 21.0047C15.0601 21.2579 14.6797 21.5463 14.6275 21.8122C14.5828 22.0429 14.7742 22.379 15.1671 22.7576C15.2789 22.8655 15.3262 23.0235 15.2889 23.1764C15.2541 23.3269 15.1422 23.4498 14.9955 23.4949C14.7071 23.5852 14.3465 23.7457 14.262 23.994C14.1849 24.2197 14.3142 24.5858 14.6225 25.0297C14.7493 25.2103 14.722 25.4611 14.5579 25.609C14.3714 25.7796 13.889 26.3413 13.904 26.868C13.9114 27.1413 14.0532 27.3871 14.3391 27.6203C14.5256 27.7733 14.5554 28.0492 14.4037 28.2373C14.2521 28.4253 13.9786 28.4554 13.7921 28.3025C13.1829 27.8059 13.0437 27.2592 13.0337 26.888C13.0163 26.1858 13.4316 25.5689 13.715 25.2304C13.3793 24.6536 13.2873 24.1545 13.4365 23.7106C13.5459 23.3871 13.7796 23.1188 14.1377 22.9131C13.812 22.4742 13.6926 22.0554 13.7747 21.6442C13.8617 21.2028 14.1725 20.8266 14.722 20.5031C14.0009 19.8034 13.9288 19.0711 14.1427 18.5645C14.2918 18.2109 14.5753 17.9551 14.9408 17.8172C14.5629 17.3156 14.5355 16.8416 14.5728 16.5507C14.6549 15.8811 15.1173 15.3445 15.6718 14.9959C15.2466 14.542 15.0477 13.9125 15.1198 13.2003C15.2044 12.3902 15.6221 11.673 16.2138 11.2442C15.8757 10.9156 15.6842 10.4993 15.6693 10.0354C15.6519 9.43851 15.9354 8.85669 16.4401 8.4103C16.0199 8.06923 15.7911 7.6429 15.7986 7.18146C15.8086 6.60967 16.1691 6.0755 16.7907 5.6918C16.0572 4.54572 16.2835 3.34447 16.8752 2.64729C17.4073 2.01532 18.3546 1.64416 19.3591 2.11061C20.1225 1.31312 20.8361 0.939453 21.5795 0.939453C21.5894 0.939453 21.5969 0.939453 21.6068 0.939453C22.3204 0.946977 23.0117 1.30309 23.7128 2.02535C24.2847 1.40842 24.8939 1.06986 25.5279 1.01469C26.1943 0.957008 26.883 1.21281 27.5792 1.77707C29.1904 0.671115 30.7419 0.814061 32.0995 2.18836C33.012 1.42096 33.9071 1.07488 34.7674 1.15763C35.6426 1.2429 36.4681 1.77206 37.2289 2.73256C38.2707 2.2661 39.0863 2.19839 39.7203 2.5219C40.1803 2.75763 40.5135 3.194 40.7124 3.81845C41.5975 3.4172 42.331 3.35701 42.9377 3.63036C43.5618 3.91124 44.0143 4.51814 44.3127 5.47613C45.2053 5.07738 45.9164 5.02472 46.4758 5.31563C46.9955 5.58397 47.3411 6.11563 47.5251 6.93318C48.4326 6.63224 49.2134 6.63726 49.8499 6.94823C50.4665 7.24917 50.934 7.82848 51.2423 8.67362C51.8639 8.46046 52.3935 8.47049 52.8187 8.70622C53.2687 8.9545 53.5795 9.44102 53.7411 10.1532C54.4174 10.0504 54.9619 10.1658 55.3672 10.5018C55.8968 10.9382 56.1405 11.6981 56.1156 12.8166C56.7646 13.13 57.4832 13.604 57.5006 14.3112C57.513 14.8304 57.14 15.2391 56.695 15.5526C57.2146 15.8736 57.508 16.2498 57.5876 16.6912C57.6796 17.1978 57.4782 17.7169 56.9759 18.2686C57.2072 18.4993 57.3514 18.7626 57.4036 19.0536C57.4931 19.5451 57.3166 20.0793 56.869 20.6811L55.233 28.7438C55.6432 29.0724 56.0013 29.4661 55.9863 29.9526C55.9714 30.4492 55.6009 30.8504 54.9495 31.3094C55.1907 31.6404 55.3026 31.989 55.2852 32.3426C55.2603 32.7965 55.0316 33.2304 54.584 33.6542C54.9197 33.9627 55.0838 34.2887 55.0887 34.6348C55.0937 35.0962 54.8128 35.5275 54.2309 35.9464L52.3686 42.6498C52.6371 43.9539 52.1772 44.9018 51.0558 45.3683C51.3666 46.389 50.9141 47.3069 49.7107 48.1043C49.9195 48.6159 49.9419 49.0598 49.7803 49.4561C49.5291 50.0705 48.8852 50.4015 48.2039 50.6322C48.3904 51.1012 48.4103 51.5275 48.2611 51.9087C48.0696 52.4053 47.6171 52.7789 46.8836 53.0448C46.9706 54.4818 46.7046 55.4423 46.0706 55.9714C45.5484 56.4078 44.805 56.5156 43.8552 56.2899C43.3927 56.8015 42.7786 57.0824 42.152 57.0824Z" fill="#1B1B1B"/>
<g opacity="0.3">
<path opacity="0.3" d="M50.9537 43.7607L46.5155 41.4736L46.513 41.4711C46.3091 41.0999 46.0232 40.7839 45.69 40.5306L46.513 41.4711C46.9606 42.2836 47.0153 43.357 46.2917 44.5733C45.9411 45.1676 45.138 45.3055 44.6035 44.8742C42.5621 43.2316 42.771 41.2027 42.771 41.2027L42.7735 41.2002C42.1668 41.1801 41.5502 40.9093 40.9982 40.3576C40.9485 40.3074 40.8987 40.2548 40.849 40.1996C39.3994 41.9551 37.6664 42.3964 35.7395 41.9576C35.7146 41.9526 35.6897 41.9475 35.6674 41.9425C35.7842 40.4955 36.2392 39.4548 36.9429 38.7074C34.6678 37.0171 32.353 35.9237 30.0083 35.2416C29.884 35.52 29.6428 35.8209 29.2127 36.1243C29.2127 36.1243 31.2267 36.5507 29.7821 38.5494C29.7821 38.5494 31.1372 39.2065 29.7249 40.5557C29.7249 40.5557 31.4703 41.3707 29.3594 42.6497C29.3594 42.6497 30.8189 43.856 28.785 44.7664C29.787 45.3231 29.8268 45.9501 28.432 46.6849C29.7821 47.5877 29.5061 48.3977 27.8551 49.125C28.0515 49.4761 28.1933 49.7971 28.2803 50.088L28.2977 50.078C28.3101 50.098 28.3226 50.1156 28.3375 50.1331C29.0113 51.0786 29.8442 51.4146 30.9159 50.8855C31.6145 52.0892 32.7235 51.9914 34.0562 51.1914C34.4291 52.4529 35.4287 52.483 36.744 51.8911C37.3134 53.2554 38.3203 53.2855 39.5412 52.6635C40.118 54.0805 41.1349 54.0579 42.3955 53.2353C42.7884 54.903 44.6358 55.1112 45.5906 53.8146C45.9014 53.9049 46.1923 53.9626 46.4558 53.9802C46.3265 55.8209 45.3071 56.2673 43.7059 55.7983C42.7511 57.0949 40.9037 56.8867 40.5109 55.219C39.2503 56.0416 38.2358 56.0667 37.6565 54.6472C36.4357 55.2692 35.4287 55.2391 34.8593 53.8748C33.5415 54.4642 32.5445 54.4341 32.1715 53.1751C30.8413 53.9751 29.7299 54.0729 29.0312 52.8692C27.962 53.3983 27.1266 53.0623 26.4528 52.1168C26.4404 52.0968 26.4279 52.0792 26.413 52.0617C26.3782 52.0817 26.3459 52.1018 26.3111 52.1218C25.9878 52.1294 25.1375 52.1494 23.9589 52.162C23.668 51.9839 23.3846 51.7331 23.1111 51.4071C21.8032 51.8861 20.7415 51.6128 19.9981 50.3714C18.9041 51.1689 18.0712 51.0209 17.6584 49.3356C16.4724 50.3312 15.5624 49.945 14.8289 48.6836C13.2774 49.3958 12.5787 49.2027 11.9869 47.5626C10.9302 47.8134 10.1047 47.3043 11.1117 45.2454C10.3111 44.3827 10.341 43.6805 11.1291 43.1262C10.5647 41.7419 10.4155 40.5632 11.6612 40.0667C11.1291 39.214 11.1615 38.4165 12.0044 37.6917C11.8502 36.7964 11.8005 35.8936 12.0441 35.1638C12.524 34.6021 12.8348 34.2435 12.8348 34.2435C12.8348 34.2435 13.1754 34.1707 13.7697 34.0579C16.6116 33.5212 25.2369 32.1168 29.7373 33.8021C30.6747 31.8184 31.2018 29.2002 31.4604 27.6052C35.9483 29.2704 39.842 32.0466 41.7615 35.1889C43.2732 34.1181 45.4165 35.0585 45.8417 36.8917C48.7781 35.7607 51.088 35.8033 52.8956 36.7939C54.0841 39.0059 53.5843 42.5369 50.9537 43.7607Z" fill="#1B1B1B"/>
</g>
<path d="M42.7165 34.0755L41.4658 37.0222L37.9028 37.5864C35.2125 35.5877 32.465 34.4215 29.6827 33.7896C24.0684 32.5131 18.3074 33.4084 12.5688 33.9751C11.8775 34.0429 11.1888 34.1081 10.4976 34.1607L7.88934 29.762C11.0695 30.2309 13.7125 28.2548 13.7125 28.2548C13.7697 28.2046 13.8269 28.1545 13.8866 28.1068C17.9891 24.636 23.9615 24.2197 29.5062 25.594L29.7573 25.6592H29.7548C35.3269 27.0961 40.4265 30.3288 42.7165 34.0755Z" fill="#E07153"/>
<g opacity="0.55">
<g opacity="0.55">
<path opacity="0.55" d="M42.7163 34.0755L42.2986 35.061C39.9688 31.3745 34.9264 28.2021 29.4265 26.7827C29.4265 26.7827 29.4265 26.7827 29.429 26.7827L29.1779 26.7175C27.2708 26.246 25.3165 25.9852 23.402 25.9877C23.402 25.9877 23.397 25.9877 23.3945 25.9877C21.9748 25.925 17.9841 26.0078 13.4415 28.4429C13.6205 28.3275 13.7175 28.2573 13.7175 28.2573C13.7747 28.2072 13.8319 28.157 13.8915 28.1093C17.9941 24.6385 23.9664 24.2222 29.5111 25.5965L29.7622 25.6617C29.7622 25.6617 29.7622 25.6617 29.7597 25.6617C35.3267 27.0962 40.4263 30.3288 42.7163 34.0755Z" fill="white"/>
</g>
<g opacity="0.55">
<path opacity="0.55" d="M13.439 28.4429C13.2525 28.5607 12.979 28.7263 12.6284 28.8968C12.9019 28.7363 13.1705 28.5858 13.439 28.4429Z" fill="white"/>
</g>
</g>
<g opacity="0.55">
<g opacity="0.55">
<g opacity="0.55">
<path opacity="0.55" d="M13.439 28.4429C13.2525 28.5607 12.979 28.7263 12.6284 28.8968C12.9019 28.7363 13.1705 28.5858 13.439 28.4429Z" fill="white"/>
</g>
<g opacity="0.55">
<path opacity="0.55" d="M12.6583 28.9545L12.5986 28.8441C12.8746 28.6811 13.1481 28.5281 13.4091 28.3877L13.4713 28.4955C13.2177 28.6585 12.9442 28.8115 12.6583 28.9545Z" fill="#1B1B1B"/>
</g>
</g>
</g>
<path d="M43.7333 40.0843C43.7333 40.0843 43.5269 42.1131 45.5683 43.7558C46.1028 44.1871 46.906 44.0467 47.2565 43.4548C48.542 41.2906 47.3709 39.5827 45.8965 38.9808" fill="#E07153"/>
<g opacity="0.55">
<path opacity="0.55" d="M47.2541 43.4574C47.0651 43.7759 46.7493 43.9615 46.4112 44.0016C46.4534 43.9539 46.4907 43.9013 46.5256 43.8411C47.811 41.6743 46.6399 39.969 45.1655 39.3671L43.7284 40.0994C43.7284 40.0919 43.7284 40.0868 43.7284 40.0868L45.8915 38.9834C47.3684 39.5828 48.5395 41.2906 47.2541 43.4574Z" fill="white"/>
</g>
<path d="M47.4778 40.3577L51.916 42.6423C54.5466 41.4185 55.0439 37.8875 53.8504 35.6806C52.0354 34.6849 49.7156 34.6448 46.7643 35.7909L46.0706 38.7476" fill="#E07153"/>
<g opacity="0.55">
<path opacity="0.55" d="M53.4826 41.3659C54.1564 39.9439 54.1489 38.1809 53.5497 36.8091C53.4503 36.5809 53.2663 36.3953 53.0425 36.29C51.3468 35.5 49.2333 35.495 46.6077 36.4555L46.7643 35.7909C49.7157 34.6448 52.038 34.6849 53.8531 35.6806C54.7482 37.3433 54.6885 39.7533 53.4826 41.3659Z" fill="white"/>
</g>
<path d="M41.9605 39.2417C41.9108 39.1915 41.8611 39.1388 41.8113 39.0837C40.3618 40.8392 38.6287 41.2805 36.7018 40.8417C36.6769 40.8366 36.652 40.8316 36.6297 40.8266C36.7465 39.3796 37.2015 38.3389 37.9052 37.5915C38.7779 36.6586 40.0286 36.1796 41.4757 35.9313C41.7517 35.0461 42.1967 34.4442 42.7164 34.0781C44.4743 32.8342 47.0875 34.3063 46.8588 36.7464C46.3068 39.8034 43.7781 41.0649 41.9605 39.2417Z" fill="#E07153"/>
<g opacity="0.55">
<path opacity="0.55" d="M41.9954 39.1337L41.9606 39.2416C41.9108 39.1914 41.8611 39.1387 41.8114 39.0836C40.3618 40.8391 38.6288 41.2805 36.7018 40.8416C40.603 39.6152 42.0923 38.0353 41.4185 36.1418L41.7542 35.5249C43.2386 37.0171 41.9954 39.1337 41.9954 39.1337Z" fill="white"/>
</g>
<g opacity="0.55">
<path opacity="0.55" d="M43.4026 40.0491C44.5389 39.7457 45.5335 38.572 45.8567 36.7839C46.0109 35.1212 44.8473 33.9075 43.5319 33.6993C45.1779 33.283 47.0527 34.6623 46.8587 36.7438C46.4435 39.0435 44.9119 40.33 43.4026 40.0491Z" fill="white"/>
</g>
<path d="M38.0221 41.436C37.5447 41.436 37.0474 41.3733 36.5302 41.2504C36.3213 41.2003 36.1796 41.0047 36.197 40.789C36.3139 39.3244 36.7813 38.1457 37.5894 37.2855C38.3975 36.4203 39.5636 35.8485 41.1475 35.5401C41.4409 34.7376 41.8835 34.1231 42.4678 33.7144C43.4176 33.0423 44.6583 33.0046 45.7051 33.6191C46.8066 34.2661 47.4157 35.4774 47.2939 36.784C47.2939 36.7965 47.2914 36.809 47.2889 36.8216C46.9582 38.6573 45.9139 40.0366 44.5638 40.4203C43.6165 40.6912 42.6443 40.4354 41.8362 39.7206C40.7571 40.8617 39.4791 41.436 38.0221 41.436ZM37.1046 40.4755C38.86 40.7865 40.2946 40.2373 41.4782 38.8028C41.5602 38.705 41.6771 38.6473 41.8039 38.6448C41.8064 38.6448 41.8089 38.6448 41.8113 38.6448C41.9357 38.6448 42.0525 38.6974 42.1346 38.7902C42.7811 39.515 43.5593 39.7959 44.3226 39.5777C45.347 39.2843 46.1526 38.1783 46.4261 36.6836C46.5107 35.7156 46.078 34.8554 45.265 34.3789C44.5141 33.9401 43.6339 33.9601 42.965 34.4341C42.4827 34.7752 42.1197 35.3219 41.8884 36.0592C41.8387 36.2172 41.7069 36.3325 41.5453 36.3601C40.0261 36.621 38.9371 37.12 38.2185 37.8899C37.6143 38.5369 37.2463 39.3846 37.1046 40.4755Z" fill="#1B1B1B"/>
<path d="M52.483 34.7626C52.5377 34.7977 52.5675 34.8228 52.6073 34.8554C52.6446 34.8855 52.6819 34.9156 52.7167 34.9456C52.7888 35.0083 52.8559 35.071 52.9206 35.1413C53.0498 35.2767 53.1692 35.4272 53.2686 35.5927C53.47 35.9187 53.5944 36.33 53.5496 36.7313C53.5297 36.9294 53.475 37.12 53.3979 37.2955C53.3209 37.4711 53.2189 37.6241 53.112 37.7695C52.8932 38.0554 52.6172 38.2836 52.391 38.4993C52.2691 38.6046 52.1647 38.73 52.0503 38.8454C51.9384 38.9633 51.839 39.0912 51.7321 39.214C51.5356 39.4724 51.3392 39.7357 51.1776 40.0191C51.011 40.3 50.8618 40.5934 50.74 40.9018C50.6182 41.2078 50.5137 41.5238 50.4565 41.8523C50.4839 41.5213 50.5585 41.1928 50.653 40.8717C50.7474 40.5507 50.8718 40.2373 51.016 39.9338C51.1552 39.6278 51.3293 39.3369 51.5083 39.051C51.6053 38.9131 51.6997 38.7702 51.8017 38.6372C51.9086 38.5068 52.0056 38.3664 52.1224 38.2435C52.3537 37.9802 52.5725 37.762 52.7341 37.5037C52.8111 37.3733 52.8808 37.2429 52.9255 37.1074C52.9703 36.972 52.9951 36.8366 52.9951 36.7037C52.9976 36.4378 52.8957 36.187 52.7291 35.9638C52.647 35.8535 52.5476 35.7507 52.4382 35.6554C52.3835 35.6077 52.3288 35.5626 52.2691 35.5225C52.2393 35.5024 52.2094 35.4823 52.1821 35.4623C52.1547 35.4447 52.1174 35.4221 52.1025 35.4146L52.483 34.7626Z" fill="white"/>
<path d="M49.0393 34.8832C49.3227 35.3496 49.5539 35.8612 49.6609 36.4154C49.7703 36.9672 49.7255 37.5615 49.5316 38.1082C49.3401 38.6574 49.0094 39.1464 48.624 39.5703C48.2386 39.9941 47.7961 40.3577 47.3361 40.6887L46.9432 40.0492C47.4007 39.796 47.8408 39.5076 48.2312 39.169C48.6215 38.8279 48.9597 38.4292 49.1859 37.9653C49.4122 37.5038 49.5191 36.9747 49.4744 36.4405C49.4346 35.9064 49.268 35.3797 49.0393 34.8832Z" fill="white"/>
<path d="M37.878 29.2806C37.5299 29.737 37.3508 30.3715 37.234 31.0085C37.1171 31.653 37.0699 32.3226 37.0102 32.9947C36.9803 33.3307 36.9505 33.6693 36.9033 34.0079C36.856 34.3464 36.7963 34.6875 36.6795 35.016C36.6546 35.0988 36.6123 35.179 36.5775 35.2593C36.5576 35.2994 36.5328 35.337 36.5129 35.3746C36.4905 35.4123 36.4681 35.4524 36.4383 35.485C36.3388 35.6329 36.1871 35.7458 36.028 35.816L35.9037 35.8586L35.7744 35.8787C35.752 35.8812 35.7321 35.8862 35.7097 35.8862L35.6451 35.8837L35.5183 35.8787C35.4337 35.8662 35.3517 35.8511 35.2696 35.8336L35.0284 35.7583L35.2746 35.8085C35.3566 35.8185 35.4387 35.826 35.5207 35.8286L35.6426 35.821L35.7047 35.8185C35.7246 35.816 35.7445 35.8085 35.7644 35.806L35.8813 35.7784L35.9907 35.7282C36.1275 35.6505 36.2468 35.5452 36.3239 35.4022C36.3463 35.3696 36.3637 35.3345 36.3811 35.2969C36.3985 35.2593 36.4159 35.2242 36.4308 35.1891C36.4532 35.1113 36.488 35.0386 36.5029 34.9583C36.5825 34.6423 36.6098 34.3113 36.6273 33.9803C36.6422 33.6492 36.6422 33.3132 36.6397 32.9771C36.6372 32.3025 36.6223 31.6254 36.682 30.9307C36.7118 30.5847 36.759 30.2361 36.8461 29.885C36.9331 29.5364 37.0599 29.1803 37.2663 28.8492L37.878 29.2806Z" fill="white"/>
<path d="M32.4127 26.4894C32.3307 27.2041 32.3754 27.9188 32.4799 28.6235C32.5843 29.3283 32.7459 30.0229 32.8777 30.7351C32.9423 31.0913 32.9995 31.4549 33.0169 31.8311C33.0319 32.2047 33.0169 32.601 32.8827 32.9922C32.7484 33.3809 32.4823 33.7471 32.1467 33.9853C31.8135 34.2286 31.443 34.3815 31.075 34.4919L30.896 33.7621C31.2143 33.6969 31.5226 33.5966 31.7812 33.4411C32.0422 33.2881 32.2362 33.0649 32.363 32.7866C32.4873 32.5082 32.537 32.1746 32.552 31.8361C32.5644 31.495 32.542 31.1439 32.5097 30.7903C32.4426 30.0831 32.3381 29.3659 32.2959 28.6461C32.2486 27.9239 32.2685 27.1941 32.4127 26.4894Z" fill="white"/>
<path d="M28.3202 25.3583C28.2182 25.6844 28.1312 26.0179 28.0641 26.3565C27.9969 26.695 27.9497 27.0386 27.9174 27.3872C27.8502 28.0819 27.8502 28.7916 27.8428 29.5088C27.8403 29.8674 27.8328 30.2286 27.8055 30.5922C27.7781 30.9533 27.7209 31.3195 27.609 31.6706C27.4996 32.0217 27.3156 32.3502 27.072 32.621C26.8283 32.8919 26.5299 33.1 26.2142 33.2605C26.515 33.0724 26.791 32.8417 26.9999 32.5608C27.2112 32.2825 27.3554 31.959 27.43 31.6204C27.5817 30.9408 27.522 30.2311 27.4723 29.5213C27.4151 28.8116 27.3529 28.0894 27.3604 27.3571C27.3629 26.9909 27.3803 26.6223 27.4201 26.2561C27.4599 25.8875 27.522 25.5214 27.6016 25.1577L28.3202 25.3583Z" fill="white"/>
<path d="M22.6014 24.7665C22.405 25.5264 22.3354 26.3088 22.3378 27.0887C22.3378 27.8687 22.41 28.6486 22.395 29.4486C22.3876 29.8474 22.3528 30.2561 22.2558 30.6599C22.1613 31.0637 22.0022 31.4599 21.7809 31.821C21.5596 32.1822 21.2761 32.5006 20.9678 32.7765C20.657 33.0524 20.3214 33.2906 19.9733 33.5063L19.6127 32.8467C20.2716 32.5082 20.8932 32.0869 21.3184 31.5025C21.5322 31.2116 21.6939 30.8856 21.8082 30.532C21.9226 30.1809 21.9848 29.8047 22.0246 29.4235C22.0992 28.6586 22.0892 27.8662 22.1539 27.0787C22.211 26.2938 22.3453 25.5088 22.6014 24.7665Z" fill="white"/>
<path d="M17.748 26.0655C17.5889 26.7075 17.4645 27.3646 17.3402 28.0266C17.2159 28.6887 17.0916 29.3608 16.9076 30.0204C16.7261 30.6799 16.4799 31.3345 16.107 31.9113C16.015 32.0567 15.9056 32.1896 15.8061 32.3276C15.6942 32.4555 15.5749 32.5784 15.4605 32.7038C15.3312 32.8141 15.2044 32.927 15.0751 33.0348L14.6599 33.3207L15.0453 32.9997C15.1646 32.8818 15.2765 32.7589 15.3934 32.6411C15.4953 32.5081 15.5973 32.3777 15.6942 32.2448C15.7788 32.1019 15.8708 31.9665 15.9478 31.8185C16.2537 31.2317 16.4302 30.5896 16.5446 29.9376C16.6614 29.2856 16.7211 28.6185 16.7858 27.9464C16.8479 27.2743 16.9126 26.5972 17.017 25.915L17.748 26.0655Z" fill="white"/>
<path d="M10.8283 29.08C10.5026 29.2379 10.2191 29.4737 9.9879 29.7445C9.75666 30.0179 9.57266 30.3289 9.45829 30.6649C9.34143 30.9985 9.26684 31.347 9.2544 31.7006L9.24197 31.964L9.25689 32.2298C9.26435 32.3176 9.26186 32.4053 9.2743 32.4931L9.31408 32.7564L9.39613 33.2981L9.4384 33.5765L9.45829 33.8599C9.49061 34.2386 9.46326 34.6298 9.39364 35.0185C9.23949 35.7909 8.74966 36.6135 7.80483 36.8693L7.68796 36.127C7.68299 36.1295 7.70537 36.1245 7.7178 36.122C7.73023 36.1195 7.74764 36.1144 7.76504 36.1094C7.79737 36.1019 7.82969 36.0894 7.86201 36.0768C7.92666 36.0517 7.99379 36.0242 8.05595 35.984C8.1206 35.9514 8.17779 35.9038 8.23746 35.8611C8.29216 35.811 8.34935 35.7633 8.40156 35.7082C8.60545 35.485 8.75961 35.1991 8.85161 34.8781C8.93614 34.5571 8.99333 34.216 8.99333 33.8649L8.9983 33.6016L8.9809 33.3358L8.94609 32.789L8.92868 32.5082C8.92371 32.4154 8.93366 32.3201 8.93366 32.2248L8.9436 31.9439L8.9809 31.663C9.02565 31.2894 9.13754 30.9232 9.2917 30.5822C9.44337 30.2386 9.66466 29.9301 9.92574 29.6693C10.1793 29.421 10.4877 29.2079 10.8283 29.08Z" fill="white"/>
<path d="M10.336 25.3207C10.2987 25.3182 10.2365 25.3157 10.1843 25.3157C10.1296 25.3157 10.0749 25.3157 10.0202 25.3182C9.91082 25.3207 9.79894 25.3307 9.68705 25.3433C9.46576 25.3683 9.24447 25.4085 9.02815 25.4636C8.59552 25.574 8.18029 25.752 7.8123 26.0003C7.62582 26.1232 7.45674 26.2661 7.3001 26.4266C7.14097 26.5846 7.00173 26.7602 6.87741 26.9483C6.63126 27.3269 6.44726 27.7533 6.33786 28.2047L6.2583 28.5508C6.22846 28.6711 6.20608 28.794 6.16879 28.9144C6.13398 29.0348 6.09917 29.1526 6.05193 29.2705C6.01214 29.3884 5.95744 29.5012 5.90274 29.6166C5.68394 30.0655 5.35076 30.4717 4.92807 30.7376C4.50538 31.0059 4.01059 31.1238 3.52574 31.1338C3.04089 31.1413 2.55853 31.0611 2.10849 30.9006C2.56847 31.031 3.05084 31.0786 3.52077 31.0385C3.9907 30.9984 4.45068 30.8529 4.82364 30.5796C5.1966 30.3087 5.47259 29.9225 5.64913 29.4962C5.6914 29.3884 5.73367 29.2805 5.76599 29.1702C5.80329 29.0598 5.82815 28.947 5.85301 28.8341C5.88285 28.7213 5.89528 28.6034 5.91517 28.4906L5.97485 28.1269C6.06436 27.6354 6.23095 27.1514 6.48207 26.705C6.60888 26.4843 6.75558 26.2686 6.92465 26.0781C7.09373 25.8824 7.28021 25.7044 7.48658 25.5464C7.89435 25.2279 8.35931 24.9947 8.84416 24.8367C9.08783 24.7564 9.33398 24.6937 9.58759 24.6486C9.7144 24.6285 9.8412 24.6085 9.96801 24.5959C10.0327 24.5884 10.0973 24.5834 10.162 24.5809C10.2291 24.5759 10.2888 24.5734 10.3683 24.5734L10.336 25.3207Z" fill="white"/>
<path d="M46.2794 44.448C45.9239 44.448 45.5758 44.3276 45.2948 44.1019C43.0943 42.3288 43.2908 40.1345 43.3007 40.0417C43.3256 39.8009 43.5394 39.6254 43.7781 39.6505C44.0168 39.6755 44.1908 39.8887 44.166 40.1295C44.1585 40.2072 44.0242 41.9552 45.8393 43.4147C45.9985 43.5426 46.2048 43.5953 46.4087 43.5577C46.6101 43.5201 46.7792 43.4047 46.8812 43.2317C47.3586 42.4266 47.4903 41.6342 47.2591 40.9395C47.0353 40.2674 46.4659 39.6881 45.7324 39.3896C45.5086 39.2994 45.4017 39.0436 45.4912 38.8179C45.5808 38.5922 45.8344 38.4843 46.0581 38.5746C47.0378 38.9733 47.7763 39.7332 48.0846 40.6586C48.3034 41.3182 48.4029 42.3765 47.6296 43.6806C47.3983 44.0693 47.0105 44.3401 46.5654 44.4204C46.4684 44.4379 46.3739 44.448 46.2794 44.448Z" fill="#1B1B1B"/>
<path d="M51.9161 43.0836C51.849 43.0836 51.7794 43.0686 51.7172 43.036L47.279 40.7488C47.0652 40.6385 46.9807 40.3751 47.0901 40.1595C47.1995 39.9438 47.4605 39.8585 47.6744 39.9689L51.9186 42.1557C53.0176 41.5714 53.5323 40.5933 53.7735 39.8585C54.1887 38.5971 54.0917 37.135 53.5248 36.0064C51.7744 35.0986 49.6212 35.1588 46.9508 36.1895C46.727 36.2748 46.4759 36.1619 46.3889 35.9362C46.3019 35.7105 46.4162 35.4572 46.64 35.3694C49.5814 34.2334 52.0753 34.2083 54.0569 35.2942C54.1315 35.3343 54.1912 35.3945 54.231 35.4698C54.9595 36.8165 55.1012 38.6046 54.599 40.1319C54.1638 41.4611 53.2737 42.4943 52.0952 43.041C52.0405 43.0686 51.9783 43.0836 51.9161 43.0836Z" fill="#1B1B1B"/>
<path d="M41.8113 39.5225C41.7144 39.5225 41.6149 39.4899 41.5329 39.4222C41.3489 39.2667 41.3215 38.9908 41.4757 38.8052C41.6149 38.6372 41.7542 38.4491 41.8934 38.2485C41.9406 38.1657 42.2664 37.5589 42.2465 36.957C42.239 36.7137 42.4255 36.5106 42.6667 36.5031C42.9104 36.493 43.1093 36.6836 43.1167 36.9269C43.149 37.8347 42.6567 38.6748 42.6368 38.7099C42.6319 38.7175 42.6269 38.725 42.6219 38.735C42.4653 38.9632 42.3061 39.1764 42.1495 39.367C42.06 39.4673 41.9357 39.5225 41.8113 39.5225Z" fill="#1B1B1B"/>
<path d="M41.4757 36.3676C41.4334 36.3676 41.3912 36.3626 41.3514 36.3501C41.1201 36.2798 40.9908 36.0366 41.0605 35.8034C41.1301 35.5701 41.3713 35.4397 41.6025 35.51C41.8337 35.5802 41.963 35.8234 41.8959 36.0567C41.8362 36.2447 41.6622 36.3676 41.4757 36.3676Z" fill="#1B1B1B"/>
<path d="M42.7163 34.5144C42.5696 34.5144 42.4279 34.4392 42.3458 34.3063C39.8022 30.1433 33.5564 26.552 27.1564 25.569C21.8206 24.7514 17.1487 25.8223 14.0034 28.5884C13.9959 28.5959 13.986 28.6034 13.976 28.611C13.8617 28.6962 11.149 30.6925 7.82967 30.2009C7.59098 30.1658 7.42688 29.9426 7.46169 29.7019C7.4965 29.4611 7.7153 29.2956 7.95399 29.3307C10.8059 29.752 13.2525 28.0492 13.444 27.9113C16.7882 24.9846 21.7013 23.8436 27.2857 24.6987C33.9219 25.7169 40.4188 29.4762 43.0843 33.8423C43.2111 34.048 43.1464 34.3188 42.9425 34.4467C42.8729 34.4918 42.7934 34.5144 42.7163 34.5144Z" fill="#1B1B1B"/>
<path d="M11.6562 38.4894C11.614 38.4894 11.5717 38.4843 11.5294 38.4693C7.08125 37.0975 4.25422 34.4166 2.66542 32.4104C0.939858 30.231 0.273504 28.3928 0.246154 28.3151C0.241181 28.3025 0.236208 28.2875 0.233722 28.2724C-0.159128 26.6925 -0.0546997 25.2931 0.53209 24.3351C0.892617 23.7433 1.42968 23.342 2.03884 23.2066C2.76487 23.0436 3.52571 23.3295 4.03045 23.9514C4.8435 24.9546 5.81071 25.085 7.07379 24.3652C9.01567 23.2116 10.2141 24.0141 10.873 24.8944C10.878 24.8994 10.8805 24.9044 10.8854 24.9119C11.5369 25.8674 12.3847 26.3489 13.4787 26.384C13.7199 26.3915 13.9064 26.5947 13.899 26.8354C13.8915 27.0787 13.6876 27.2693 13.4514 27.2593C12.0839 27.2166 10.9799 26.5947 10.1743 25.416C9.75164 24.8568 9.01816 24.2273 7.50891 25.1251C5.44272 26.3013 4.11001 25.4361 3.35663 24.5057C3.06324 24.142 2.63061 23.974 2.22781 24.0643C1.84242 24.152 1.51173 24.4053 1.27055 24.7991C0.810566 25.5489 0.740947 26.7 1.06915 28.0392C1.22082 28.4379 3.8937 35.1991 11.7805 37.6317C12.0093 37.7019 12.1386 37.9477 12.069 38.1809C12.0143 38.369 11.8427 38.4894 11.6562 38.4894Z" fill="#1B1B1B"/>
<path d="M37.9028 38.0279C37.8133 38.0279 37.7238 38.0003 37.6442 37.9426C30.369 32.5358 22.8401 33.3358 14.8687 34.1809C13.4465 34.3314 11.977 34.4869 10.5324 34.6022C10.2937 34.6223 10.0824 34.4417 10.065 34.1985C10.0451 33.9577 10.2241 33.7446 10.4653 33.727C11.8999 33.6142 13.3644 33.4587 14.7792 33.3082C22.5641 32.4832 30.6151 31.628 38.1614 37.2354C38.3553 37.3784 38.3951 37.6542 38.2534 37.8498C38.1688 37.9652 38.0371 38.0279 37.9028 38.0279Z" fill="#1B1B1B"/>
<g opacity="0.3">
<g opacity="0.3">
<path opacity="0.3" d="M26.4504 52.1193C26.4454 52.1193 26.3957 52.1193 26.3087 52.1243C26.3435 52.1043 26.3783 52.0842 26.4106 52.0642C26.4255 52.0817 26.4379 52.1018 26.4504 52.1193Z" fill="#1B1B1B"/>
</g>
<g opacity="0.3">
<path opacity="0.3" d="M26.0575 52.197L26.2763 52.0717C26.3111 52.0516 26.3459 52.0316 26.3782 52.0115L26.428 51.9814L26.5672 52.187L26.4479 52.1845C26.4379 52.1845 26.3932 52.1845 26.3086 52.187L26.0575 52.197Z" fill="#1B1B1B"/>
</g>
</g>
<path d="M23.6084 43.7709C20.4631 43.5652 17.7305 40.2097 20.7764 35.5979C20.7764 35.5979 22.5367 33.2555 25.0828 35.6179C25.5204 36.0242 25.6248 36.6837 25.3289 37.2054C24.0708 39.4248 23.7575 41.258 25.6994 42.1734C26.0997 42.3615 26.4553 42.6474 26.7064 43.016C28.2753 45.3132 23.7849 46.7502 23.6084 43.7709Z" fill="white"/>
<path d="M25.237 45.5163C25.0604 45.5163 24.8864 45.4937 24.7223 45.4436C24.3195 45.3257 23.6382 44.9595 23.5512 43.8285C21.93 43.7056 20.5078 42.7727 19.8265 41.3884C19.016 39.7357 19.3367 37.6667 20.7266 35.5626C20.7589 35.52 21.4527 34.6121 22.6113 34.5093C23.4393 34.4341 24.2847 34.7927 25.1251 35.5726C25.5876 36.004 25.6945 36.6861 25.3837 37.2379C24.501 38.7927 24.2051 39.9664 24.4737 40.8216C24.6502 41.3808 25.058 41.8047 25.7268 42.1181C26.157 42.3213 26.5125 42.6197 26.7587 42.9808C27.1838 43.6053 27.2162 44.2323 26.8482 44.7489C26.5026 45.2254 25.8611 45.5163 25.237 45.5163ZM22.8252 34.6247C22.758 34.6247 22.6909 34.6272 22.6238 34.6347C21.5198 34.7325 20.8335 35.6278 20.8261 35.6353C19.4635 37.6968 19.1477 39.7206 19.9359 41.3307C20.6023 42.6924 22.0121 43.6028 23.6109 43.7056L23.6656 43.7081L23.6681 43.7633C23.7153 44.5758 24.1032 45.1301 24.7521 45.3207C25.4583 45.5288 26.331 45.2429 26.7413 44.6711C27.0769 44.2022 27.0446 43.6254 26.6518 43.0461C26.418 42.7025 26.0774 42.4191 25.6696 42.226C24.9784 41.9 24.5358 41.4385 24.3518 40.8542C24.0709 39.9639 24.3742 38.7601 25.2718 37.1701C25.5552 36.6711 25.4583 36.0516 25.0381 35.6604C24.2971 34.9733 23.5537 34.6247 22.8252 34.6247Z" fill="#1B1B1B"/>
<g opacity="0.3">
<g opacity="0.3">
<g opacity="0.3">
<path opacity="0.3" d="M26.2838 45.1676C25.3066 45.7469 23.7103 45.5238 23.6084 43.7708C20.4631 43.5651 17.7305 40.2096 20.7764 35.5977C20.7764 35.5977 21.674 34.4015 23.1161 34.582C22.5119 34.888 22.1663 35.3444 22.1663 35.3444C19.1204 39.9563 21.8505 43.3118 24.9983 43.5175C25.058 44.5407 25.6274 45.0422 26.2838 45.1676Z" fill="#1B1B1B"/>
</g>
<g opacity="0.3">
<path opacity="0.3" d="M25.247 45.5188C24.9486 45.5188 24.6602 45.4511 24.409 45.3182C24.0535 45.1276 23.6184 44.7138 23.5487 43.831C21.9276 43.7082 20.5054 42.7752 19.8241 41.3909C19.0135 39.7382 19.3343 37.6692 20.7242 35.5652C20.7366 35.5501 21.6616 34.3388 23.1211 34.5219L23.325 34.547L23.141 34.6398C22.5591 34.9332 22.2185 35.3796 22.2135 35.3846C20.851 37.446 20.5352 39.4699 21.3234 41.0799C21.9898 42.4417 23.3996 43.352 24.9983 43.4549L25.053 43.4574L25.0555 43.5125C25.1077 44.3853 25.5578 44.9646 26.2913 45.105L26.4529 45.1351L26.3111 45.2204C25.9854 45.4185 25.61 45.5188 25.247 45.5188ZM22.8252 34.6247C21.6019 34.6247 20.8361 35.6228 20.8261 35.6354C19.4636 37.6968 19.1478 39.7232 19.936 41.3332C20.6023 42.695 22.0121 43.6053 23.6109 43.7082L23.6656 43.7107L23.6681 43.7658C23.7203 44.6285 24.1306 45.0248 24.4662 45.2054C24.9362 45.4561 25.5777 45.4461 26.1097 45.1903C25.426 44.9922 25.0058 44.4154 24.9386 43.5752C23.3175 43.4524 21.8953 42.5194 21.214 41.1351C20.4034 39.4824 20.7242 37.4134 22.1141 35.3094C22.129 35.2893 22.4075 34.9231 22.9023 34.6272C22.8774 34.6272 22.8501 34.6247 22.8252 34.6247Z" fill="#1B1B1B"/>
</g>
</g>
</g>
<path d="M25.2419 45.8926C25.0306 45.8926 24.8193 45.865 24.6179 45.8048C23.7625 45.554 23.2354 44.8217 23.1757 43.796C23.1608 43.5553 23.3448 43.3471 23.5835 43.3321C23.8222 43.317 24.0286 43.5026 24.0435 43.7434C24.0833 44.3954 24.3642 44.8167 24.8615 44.9622C25.4185 45.1252 26.1271 44.897 26.4429 44.4531C26.6865 44.112 26.6542 43.7108 26.3484 43.2618C26.152 42.9734 25.8635 42.7327 25.5154 42.5697C24.7049 42.1885 24.1877 41.6292 23.9813 40.912C23.6531 39.7659 24.1181 38.2587 25.4458 36.1671C25.5751 35.964 25.8437 35.9038 26.0475 36.0342C26.2489 36.1646 26.3086 36.4354 26.1793 36.6411C25.0132 38.4768 24.5681 39.796 24.8193 40.6687C24.9535 41.1402 25.3041 41.5013 25.8859 41.7772C26.3757 42.0079 26.7835 42.349 27.067 42.7678C27.5816 43.5202 27.6115 44.3252 27.1515 44.9697C26.7338 45.5465 25.9829 45.8926 25.2419 45.8926Z" fill="#1B1B1B"/>
<path d="M23.9117 44.2197C22.2682 44.2197 20.6968 43.4272 19.7943 42.0805C18.5709 40.2548 18.7972 37.8022 20.4134 35.3545C20.5476 35.1539 20.8162 35.0987 21.0176 35.2316C21.2165 35.3671 21.2712 35.6379 21.1394 35.841C19.7296 37.9777 19.5009 40.0717 20.5153 41.589C21.4129 42.9282 23.1236 43.5978 24.7745 43.2542C25.0107 43.204 25.2395 43.357 25.2892 43.5952C25.3389 43.8335 25.1873 44.0642 24.9511 44.1144C24.6055 44.1846 24.2574 44.2197 23.9117 44.2197Z" fill="#1B1B1B"/>
<path d="M59.0397 43.5025C58.9651 43.5025 58.8881 43.4824 58.8184 43.4398C58.6121 43.3169 58.5449 43.0461 58.6668 42.8379C59.169 41.9853 59.2014 41.4511 59.0646 41.2329C58.9502 41.0498 58.6891 41.0549 58.5847 41.0649C58.2267 41.1 57.7542 41.3658 57.5603 41.8649C57.5006 42.0179 57.3614 42.1257 57.1973 42.1408L52.7615 42.5846C52.5228 42.6072 52.3089 42.4317 52.2865 42.1909C52.2617 41.9502 52.4382 41.7345 52.6769 41.7119L56.8691 41.2906C57.2445 40.606 57.9358 40.2448 58.5027 40.1897C59.0571 40.1345 59.542 40.3502 59.8031 40.7614C60.0617 41.1752 60.2084 41.9477 59.4202 43.2843C59.3331 43.4273 59.1889 43.5025 59.0397 43.5025Z" fill="#1B1B1B"/>
<path d="M50.2726 47.4975C50.0737 47.4975 49.8946 47.3595 49.8499 47.1564C49.7952 46.9207 49.9419 46.6849 50.1756 46.6298L61.0362 44.1144C61.8691 43.9213 62.5777 43.3671 62.9283 42.6298C63.4281 41.5865 62.901 41.0197 62.5454 40.7765C61.7821 40.2548 60.4544 40.2523 59.6363 41.1527C59.4747 41.3307 59.1987 41.3432 59.0222 41.1802C58.8457 41.0172 58.8332 40.7389 58.9948 40.5608C60.1261 39.3144 61.9735 39.3244 63.0352 40.0492C64.0099 40.7138 64.271 41.8498 63.7165 43.011C63.2441 43.999 62.339 44.7138 61.2351 44.9696L50.3745 47.4849C50.3372 47.495 50.3049 47.4975 50.2726 47.4975Z" fill="#1B1B1B"/>
<g opacity="0.6">
<g opacity="0.6">
<path opacity="0.6" d="M41.7616 9.52131C41.7915 9.13761 41.8089 8.79905 41.7442 8.51065C41.6846 8.21974 41.5503 7.99905 41.3713 7.84858C41.1898 7.70061 40.9486 7.61535 40.6577 7.61284C40.3643 7.61033 40.0435 7.69811 39.678 7.81347C39.8446 7.46989 40.1504 7.17898 40.5532 7.04858C40.7546 6.98337 40.9784 6.96331 41.2047 6.99842C41.4285 7.03604 41.6497 7.13133 41.8313 7.2818C42.0103 7.43227 42.1495 7.63039 42.2316 7.84356C42.3136 8.05673 42.336 8.28243 42.3136 8.49309C42.2689 8.91943 42.0575 9.28056 41.7616 9.52131Z" fill="#1B1B1B"/>
</g>
<g opacity="0.6">
<path opacity="0.6" d="M35.5108 6.81781C35.1801 6.72 34.8271 6.69242 34.5387 6.80527C34.2503 6.91561 34.0439 7.15386 33.9743 7.42721C33.9047 7.70307 33.9693 7.99147 34.1284 8.21216C34.2876 8.43536 34.5412 8.59085 34.8221 8.68865C35.0434 8.7664 35.1602 9.01216 35.0832 9.23536C35.0285 9.39085 34.8967 9.49367 34.7475 9.51624L34.6605 9.52878C34.5188 9.5363 34.382 9.54884 34.2528 9.58144C34.126 9.61404 34.0116 9.66169 33.9121 9.72439C33.7157 9.84727 33.5964 10.0329 33.574 10.231C33.5541 10.4291 33.6312 10.6272 33.7878 10.7551C33.942 10.8855 34.1807 10.9457 34.4442 10.9357C34.6854 10.9256 34.8868 11.1137 34.8992 11.357C34.9066 11.5275 34.8147 11.6805 34.6779 11.7582H34.6754C34.4243 11.8686 34.1856 11.9965 33.9693 12.1495C33.758 12.2999 33.564 12.488 33.477 12.6736C33.4372 12.7664 33.4273 12.8341 33.4497 12.8968C33.4721 12.962 33.5516 13.0397 33.6635 13.0924C33.8873 13.2002 34.1806 13.2379 34.4641 13.2504H34.4666C34.5362 13.2529 34.5884 13.3106 34.5859 13.3808C34.5834 13.4435 34.5362 13.4937 34.4765 13.5012C34.1732 13.5388 33.8599 13.5664 33.5218 13.4761C33.3577 13.4285 33.1687 13.3407 33.0345 13.1476C32.9698 13.0523 32.93 12.9369 32.9176 12.8241C32.9052 12.7112 32.9176 12.6034 32.94 12.5056C32.9897 12.31 33.0742 12.147 33.1712 12.0015C33.2682 11.856 33.3776 11.7256 33.4944 11.6078C33.7257 11.3695 33.9842 11.1689 34.2528 10.9883L34.484 11.8109C34.2776 11.8184 34.0613 11.8034 33.845 11.7457C33.6312 11.688 33.4149 11.5852 33.2309 11.4322C33.0469 11.2792 32.8952 11.0786 32.8032 10.8529C32.7113 10.6272 32.6789 10.3764 32.7038 10.1357C32.7287 9.89492 32.8182 9.66169 32.9474 9.46357C33.0767 9.26545 33.2508 9.10245 33.4397 8.98207C33.6287 8.86169 33.8301 8.78144 34.034 8.72878C34.2353 8.67611 34.4367 8.65856 34.6332 8.64853L34.4691 9.48865C34.0887 9.28802 33.7207 8.9921 33.5069 8.57329C33.2906 8.16201 33.2632 7.65041 33.4422 7.2316C33.6163 6.80778 34.0066 6.49681 34.4218 6.40903C34.842 6.31624 35.2498 6.41906 35.5954 6.57956C35.6575 6.60715 35.6849 6.68239 35.6575 6.74508C35.6326 6.80276 35.568 6.83035 35.5083 6.81279L35.5108 6.81781Z" fill="#1B1B1B"/>
</g>
<g opacity="0.6">
<path opacity="0.6" d="M32.8106 20.0065C32.654 20.0366 32.5222 20.0743 32.4153 20.1294C32.3084 20.1871 32.2288 20.2548 32.1641 20.3301C32.0373 20.4805 31.9652 20.6686 31.9428 20.8743C31.9229 21.0799 31.9602 21.2981 32.0647 21.5213C32.1169 21.6341 32.184 21.747 32.2686 21.8623C32.3506 21.9777 32.4526 22.0881 32.557 22.216L32.562 22.2235C32.6092 22.2786 32.6018 22.3639 32.5446 22.4116C32.5172 22.4366 32.4799 22.4467 32.4476 22.4417C32.097 22.4065 31.7489 22.2435 31.4779 21.9526C31.2093 21.6642 31.0427 21.2404 31.075 20.8091C31.1024 20.3827 31.3287 19.9464 31.7166 19.7232C31.9055 19.6103 32.1268 19.5551 32.3332 19.5677C32.5396 19.5802 32.7286 19.6529 32.8728 19.7683C32.93 19.8134 32.9424 19.8987 32.8952 19.9589C32.8753 19.9865 32.8455 20.0015 32.8156 20.009L32.8106 20.0065Z" fill="#1B1B1B"/>
</g>
<g opacity="0.6">
<path opacity="0.6" d="M29.536 38.3665C29.8144 38.379 30.1029 38.4567 30.359 38.6273C30.6076 38.7953 30.8314 39.0762 30.8786 39.4373C30.8886 39.4824 30.8886 39.5251 30.8861 39.5702L30.8811 39.7056C30.8637 39.7909 30.8463 39.8812 30.8165 39.9664C30.7817 40.0442 30.7493 40.1294 30.7046 40.1996C30.6573 40.2674 30.6126 40.3401 30.5604 40.4053C30.349 40.6586 30.0954 40.8291 29.8368 40.9871L29.7722 40.1645H29.7747C30.0904 40.2799 30.4012 40.4755 30.6126 40.7714C30.8239 41.0623 30.9184 41.4435 30.8438 41.7971C30.7717 42.1507 30.5082 42.4542 30.1998 42.5695C29.889 42.6924 29.5758 42.6623 29.3022 42.5896C29.2351 42.572 29.1953 42.5043 29.2127 42.4366C29.2277 42.3764 29.2824 42.3388 29.342 42.3413H29.347C29.5981 42.3564 29.8468 42.3212 30.0258 42.2009C30.2048 42.0855 30.2943 41.8999 30.2943 41.7169C30.2918 41.5313 30.2073 41.3557 30.0705 41.2329C29.9338 41.11 29.7523 41.0398 29.5534 41.0097L29.4489 40.9595C29.2426 40.8592 29.1555 40.6084 29.255 40.4003C29.3047 40.2975 29.3893 40.2247 29.4887 40.1871C29.6951 40.1119 29.904 40.0266 30.0581 39.9037C30.2098 39.7808 30.3192 39.6354 30.3291 39.4699C30.3465 39.3044 30.2695 39.1037 30.1153 38.9458C29.9611 38.7878 29.7473 38.6749 29.5136 38.6147H29.5111C29.444 38.5972 29.4042 38.5295 29.4216 38.4617C29.4241 38.4016 29.4763 38.3639 29.536 38.3665Z" fill="#1B1B1B"/>
</g>
<g opacity="0.6">
<path opacity="0.6" d="M28.4892 46.4641C28.8721 46.4892 29.2501 46.7525 29.4564 47.1187C29.6678 47.4848 29.7275 47.9387 29.6081 48.3626C29.5484 48.5732 29.444 48.7789 29.2923 48.9494C29.1431 49.1225 28.9467 49.2529 28.7379 49.3256C28.529 49.3983 28.3127 49.4134 28.1187 49.3833C27.9223 49.3507 27.7433 49.283 27.5866 49.1827C27.5245 49.1425 27.5071 49.0598 27.5469 48.9971C27.5667 48.9645 27.5991 48.9444 27.6339 48.9369H27.6413C27.972 48.8792 28.248 48.8015 28.4271 48.6585C28.6061 48.5231 28.708 48.345 28.7702 48.1268C28.8274 47.9112 28.8348 47.6629 28.7776 47.4221C28.7205 47.1789 28.6036 46.9406 28.3848 46.6923L28.3798 46.6873C28.3301 46.6321 28.3351 46.5469 28.3898 46.4992C28.4196 46.4716 28.4569 46.4616 28.4892 46.4641Z" fill="#1B1B1B"/>
</g>
</g>
<path d="M47.1174 27.5826C45.991 27.1788 44.8721 26.5368 43.7607 25.7268C43.241 25.3481 42.5399 25.2804 41.9879 25.6114C41.2569 26.0503 40.8043 27.0484 41.0381 28.5883C42.2838 33.7795 48.3382 31.2466 47.923 28.5256C47.8583 28.0867 47.5326 27.7331 47.1174 27.5826Z" fill="#1B1B1B"/>
<path d="M45.8965 31.2792C45.6702 29.2203 43.3007 28.5984 41.871 30.409C41.871 30.4115 43.8154 32.2121 45.8965 31.2792Z" fill="#C95C3F"/>
<path d="M44.35 32.024C42.8208 32.024 41.2245 31.1613 40.6303 28.6886C40.6278 28.6761 40.6253 28.6661 40.6228 28.6535C40.3817 27.0736 40.8019 25.8322 41.7716 25.2504C42.4528 24.8416 43.3305 24.8943 44.0044 25.3858C45.1556 26.2259 46.2197 26.8128 47.2566 27.1864C47.8359 27.3946 48.2487 27.8836 48.3382 28.4629C48.5992 30.1708 46.901 31.5977 45.1804 31.9413C44.9094 31.9939 44.6309 32.024 44.35 32.024ZM41.4508 28.5056C42.1644 31.4397 44.3624 31.2391 45.0188 31.1087C46.5057 30.8128 47.6693 29.6341 47.5102 28.5883C47.4679 28.315 47.264 28.0817 46.9756 27.9789C45.8617 27.5802 44.7279 26.9532 43.512 26.0679C43.1092 25.7745 42.5946 25.7369 42.1992 25.9752C41.5428 26.3714 41.2693 27.2918 41.4508 28.5056Z" fill="#1B1B1B"/>
<g opacity="0.3">
<path opacity="0.3" d="M29.6852 33.7921C28.9965 33.594 28.4967 32.8316 28.1983 31.8435C27.8353 30.6473 27.7707 29.125 28.0243 27.8887C28.1262 27.3821 28.2829 26.9257 28.4967 26.557C28.3674 26.5294 28.2356 26.4993 28.1039 26.4718C27.9721 26.4467 27.8403 26.4191 27.706 26.394C27.5991 26.374 27.4897 26.3539 27.3828 26.3338C26.0575 26.1031 24.7223 25.9827 23.407 25.9827C23.407 25.9827 23.4021 25.9827 23.3996 25.9827C22.0072 25.92 18.1408 26.0003 13.7076 28.3C13.6205 28.3451 13.531 28.3902 13.444 28.4379C13.454 28.4304 13.4639 28.4254 13.4714 28.4203C13.5285 28.3802 13.5882 28.3376 13.6479 28.2975C12.5489 28.2348 11.5792 27.7608 10.8159 26.6423C10.0003 25.5564 8.91875 25.4335 7.57609 26.231C6.21354 27.0084 4.99271 26.9608 3.98075 25.7119C3.60033 25.2429 3.00608 24.9871 2.42177 25.1175C1.41975 25.3432 0.606694 26.4567 0.7335 28.3551C1.20592 29.5163 4.05534 35.7031 11.6588 38.0479L12.5738 33.9752C17.9295 33.446 23.3026 32.6335 28.5589 33.5639C28.9318 33.6316 29.3098 33.7068 29.6852 33.7921ZM13.531 29.2228L13.5559 29.2329C13.5509 29.2354 13.5435 29.2329 13.531 29.2228Z" fill="#1B1B1B"/>
</g>
<g opacity="0.3">
<g opacity="0.3">
<path opacity="0.3" d="M13.7349 28.2397C13.7274 28.2448 13.7224 28.2498 13.7175 28.2548C13.7175 28.2548 13.6304 28.32 13.4688 28.4228C13.5533 28.3601 13.6429 28.2999 13.7349 28.2397Z" fill="#1B1B1B"/>
</g>
<g opacity="0.3">
<path opacity="0.3" d="M13.5012 28.478L13.4316 28.3752C13.5186 28.3125 13.6081 28.2498 13.7001 28.1896L13.7697 28.2924L13.7424 28.2573L13.7672 28.2949C13.7672 28.2949 13.7672 28.2949 13.7647 28.2949L13.7498 28.3074C13.7498 28.31 13.6628 28.3726 13.5012 28.478Z" fill="#1B1B1B"/>
</g>
</g>
<g opacity="0.3">
<path opacity="0.3" d="M32 24.3C33.186 23.2617 32.3506 22.2837 32.3506 22.2837C30.7841 20.4529 32.7459 19.7282 32.7459 19.7282C33.9742 18.6874 33.2606 17.8348 33.2606 17.8348C34.7524 16.9269 33.5018 16.0366 33.5018 16.0366C35.2497 14.7 33.9966 13.3858 33.9966 13.3858C32.1268 12.325 34.2552 11.352 34.2552 11.352C32.3009 10.1131 34.4566 8.99963 34.4566 8.99963C32.9896 7.07862 34.8892 6.30119 34.8892 6.30119C38.1041 3.51498 34.1408 1.68676 34.0314 1.6366C33.3924 1.77203 32.736 2.16827 32.0696 2.80275C30.722 1.22532 29.2227 1.04475 27.5568 2.33629C26.0351 0.9319 24.7944 1.29554 23.7227 2.6899C22.022 0.658545 20.6769 1.25792 19.4436 2.66231C19.4884 2.60965 19.5356 2.55949 19.5829 2.50933C19.5779 2.71247 19.5655 2.92062 19.5481 3.12375C18.2576 3.31686 17.4446 5.09241 18.7897 6.60965C17.3476 7.2015 17.0642 8.47298 18.5833 9.15261C17.181 9.86985 16.9945 11.4448 18.4366 12.0692C16.8478 12.4404 16.1765 15.0536 17.8623 15.8435C16.5296 16.2548 15.4554 17.7871 17.37 18.9583C15.8259 18.5971 15.0377 20.1495 16.8802 21.3583C15.4629 21.92 15.0278 22.7 16.2063 23.8385C14.9557 24.2297 14.8836 25.0072 15.6071 26.0454C15.6071 26.0454 15.5276 26.1182 15.4157 26.2461C15.1422 26.6749 15.0178 27.0486 14.9805 27.3646L14.9781 27.3671C19.6997 24.4956 25.2295 24.0191 31.6519 26.1783C32.8354 25.6141 32 24.3 32 24.3Z" fill="#1B1B1B"/>
</g>
<path d="M54.7481 28.9293C50.73 25.8924 33.3974 20.1243 33.3974 20.1243C32.8926 19.9914 32.3804 19.8761 31.8558 19.7808C24.4737 18.424 15.5376 20.5958 15.5376 20.5958C12.4544 19.7431 14.3715 13.0698 16.5371 11.9312C22.9073 10.7576 31.0079 11.1413 33.4943 11.2993C33.9792 11.3293 34.2502 11.3519 34.2502 11.3519C48.4699 12.967 56.4537 20.4955 56.4537 20.4955C57.7367 22.4391 56.859 26.6071 54.7481 28.9293Z" fill="#DC2E00"/>
<g opacity="0.55">
<path opacity="0.55" d="M56.3269 26.3589C56.8938 24.4906 56.8938 22.5571 56.1379 21.406C56.1379 21.406 48.1541 13.8774 33.9344 12.2624C33.9344 12.2624 33.6634 12.2398 33.1785 12.2097C33.1761 12.2097 33.1736 12.2097 33.1711 12.2097C32.8255 12.1871 32.7111 11.7357 33.002 11.5451C33.1586 11.4423 33.3252 11.3596 33.5018 11.3019H33.5043C33.9891 11.332 34.2601 11.3545 34.2601 11.3545C48.4798 12.9696 56.4637 20.4981 56.4637 20.4981C57.3389 21.8373 57.1947 24.2373 56.3269 26.3589Z" fill="white"/>
</g>
<path d="M54.7482 29.3683C54.6562 29.3683 54.5642 29.3408 54.4871 29.2806C50.6158 26.3539 33.8276 20.7288 33.2731 20.5432C25.8586 18.5846 15.7414 20.9972 15.6395 21.0222C15.5674 21.0398 15.4928 21.0373 15.4232 21.0197C14.3465 20.7213 13.6727 19.7909 13.526 18.399C13.2649 15.9238 14.7096 12.4003 16.3382 11.5451C16.3754 11.525 16.4177 11.51 16.46 11.5025C24.051 10.1031 34.1881 10.9106 34.29 10.9181C34.295 10.9181 34.3 10.9181 34.3025 10.9206C41.7194 11.7633 47.4208 14.2285 50.8968 16.1495C54.6761 18.236 56.6727 20.1019 56.7548 20.1796C56.7796 20.2022 56.802 20.2298 56.8194 20.2574C58.1994 22.3564 57.3465 26.7176 55.0665 29.2304C54.9844 29.3207 54.8676 29.3683 54.7482 29.3683ZM26.428 18.8881C28.7901 18.8881 31.2541 19.1012 33.5093 19.6981C33.5192 19.7006 33.5267 19.7031 33.5342 19.7056C34.2254 19.9363 50.1384 25.2505 54.6786 28.3401C56.4539 26.1408 57.1799 22.4668 56.1257 20.7815C55.8348 20.5182 53.868 18.7802 50.4517 16.8993C47.0478 15.0235 41.4708 12.616 34.213 11.7884C33.9096 11.7633 24.0759 11.0034 16.6862 12.3501C15.4928 13.0448 14.1551 16.0617 14.3913 18.3037C14.4957 19.2943 14.8861 19.9113 15.5524 20.142C16.3929 19.9464 21.1593 18.8881 26.428 18.8881Z" fill="#1B1B1B"/>
<g opacity="0.3">
<path opacity="0.3" d="M17.9867 12.5582C18.2353 12.5231 18.4839 12.493 18.7326 12.4629C17.3054 12.809 16.1045 13.8096 15.5301 15.1914C15.5251 15.204 15.5201 15.214 15.5152 15.2266C14.8687 17.3733 14.9433 19.7808 16.6042 20.3676C16.6017 20.3676 16.5992 20.3676 16.5968 20.3701C17.3178 20.2247 18.3721 20.0316 19.6426 19.851C19.6401 19.851 19.6351 19.851 19.6327 19.8535C22.5542 19.372 27.2535 18.8403 31.6494 19.3845C30.8737 18.414 30.8215 15.362 31.7017 13.2729C31.9304 12.7313 31.5599 12.1244 30.9756 12.1018C27.8204 11.9739 22.6412 11.9212 17.9867 12.5582C16.3606 12.7789 16.3606 12.7789 17.9867 12.5582Z" fill="#1B1B1B"/>
</g>
<path d="M44.625 17.7523C45.2547 15.4348 44.4823 13.2015 42.8997 12.7641C41.3172 12.3266 39.5238 13.8507 38.8941 16.1682C38.2644 18.4857 39.0368 20.719 40.6194 21.1565C42.202 21.5939 43.9953 20.0698 44.625 17.7523Z" fill="white"/>
<path d="M41.1674 21.3057C40.9759 21.3057 40.7845 21.2806 40.598 21.2279C39.8073 21.0098 39.1882 20.3577 38.855 19.3922C38.5243 18.4367 38.5119 17.2831 38.8202 16.1496C39.1285 15.0135 39.7203 14.0304 40.4886 13.3759C41.2644 12.7163 42.1272 12.4731 42.9154 12.6913C44.5341 13.1377 45.3322 15.4173 44.6932 17.7721C44.1288 19.8511 42.6294 21.3057 41.1674 21.3057ZM42.341 12.764C41.7567 12.764 41.1475 13.0123 40.5856 13.4913C39.8396 14.1232 39.2653 15.0812 38.9644 16.1897C38.6635 17.2982 38.676 18.4167 38.9967 19.3446C39.315 20.2624 39.8968 20.8819 40.6378 21.085C42.1769 21.5113 43.9323 20.0066 44.5515 17.7345C45.1681 15.4599 44.4197 13.2656 42.8781 12.8392C42.7015 12.7866 42.5225 12.764 42.341 12.764Z" fill="#1B1B1B"/>
<path d="M44.6074 17.8187C45.1198 15.9326 44.4907 14.115 43.2022 13.7588C41.9136 13.4026 40.4536 14.6428 39.9412 16.5289C39.4287 18.4149 40.0578 20.2326 41.3464 20.5888C42.6349 20.945 44.0949 19.7048 44.6074 17.8187Z" fill="#1B1B1B"/>
<path d="M42.3434 12.6888C42.5299 12.6888 42.7139 12.7138 42.8979 12.764C44.4793 13.2004 45.2525 15.4348 44.6235 17.7521C44.0665 19.801 42.5995 21.2305 41.1723 21.2305C40.9858 21.2305 40.8018 21.2054 40.6179 21.1552C39.0365 20.7189 38.2632 18.4844 38.8923 16.1671C39.4492 14.1182 40.9162 12.6888 42.3434 12.6888ZM42.3434 11.9364C41.4508 11.9364 40.5358 12.3577 39.7675 13.1251C39.0415 13.8499 38.4746 14.8605 38.1737 15.969C37.8306 17.2355 37.848 18.5295 38.221 19.6154C38.6312 20.7991 39.4119 21.6041 40.4189 21.8825C40.6626 21.9502 40.9162 21.9853 41.1698 21.9853C42.0625 21.9853 42.9775 21.564 43.7458 20.7966C44.4718 20.0718 45.0387 19.0612 45.3395 17.9527C45.6827 16.6863 45.6653 15.3922 45.2923 14.3063C44.882 13.1226 44.1013 12.3176 43.0943 12.0392C42.8506 11.969 42.5995 11.9364 42.3434 11.9364Z" fill="#1B1B1B"/>
<path d="M42.0183 16.3184C42.383 15.8359 42.2909 15.1467 41.8126 14.7789C41.3343 14.4111 40.651 14.504 40.2863 14.9864C39.9216 15.4688 40.0137 16.158 40.492 16.5258C40.9703 16.8937 41.6536 16.8008 42.0183 16.3184Z" fill="white"/>
<path d="M56.7313 22.531C57.361 20.2135 56.5885 17.9802 55.006 17.5427C53.4235 17.1052 51.6301 18.6293 51.0004 20.9468C50.3707 23.2644 51.1431 25.4977 52.7257 25.9351C54.3082 26.3726 56.1016 24.8485 56.7313 22.531Z" fill="white"/>
<path d="M53.2761 26.0804C53.0847 26.0804 52.8932 26.0553 52.7067 26.0026C51.0881 25.5537 50.29 23.2766 50.929 20.9218C51.2373 19.7857 51.829 18.8027 52.5973 18.1481C53.3731 17.4886 54.2358 17.2453 55.024 17.4635C56.6427 17.9099 57.4408 20.1895 56.8018 22.5443C56.2374 24.6283 54.7356 26.0804 53.2761 26.0804ZM54.4497 17.5387C53.8654 17.5387 53.2562 17.787 52.6943 18.266C51.9484 18.898 51.374 19.8559 51.0732 20.9644C50.4566 23.239 51.2049 25.4334 52.7465 25.8597C54.2856 26.286 56.041 24.7813 56.6601 22.5092C57.2767 20.2346 56.5283 18.0403 54.9867 17.6139C54.8102 17.5638 54.6312 17.5387 54.4497 17.5387Z" fill="#1B1B1B"/>
<path d="M56.7137 22.5974C57.2262 20.7113 56.597 18.8936 55.3085 18.5374C54.0199 18.1812 52.5599 19.4215 52.0474 21.3075C51.5349 23.1936 52.1641 25.0113 53.4526 25.3675C54.7412 25.7236 56.2012 24.4834 56.7137 22.5974Z" fill="#1B1B1B"/>
<path d="M54.4522 17.4635C54.6387 17.4635 54.8227 17.4886 55.0067 17.5388C56.588 17.9751 57.3613 20.2096 56.7322 22.5269C56.1753 24.5758 54.7083 26.0052 53.2811 26.0052C53.0946 26.0052 52.9106 25.9801 52.7266 25.93C51.1453 25.4936 50.372 23.2591 51.0011 20.9419C51.558 18.893 53.025 17.4635 54.4522 17.4635ZM54.4522 16.7112V17.4635V16.7112C53.5596 16.7112 52.6446 17.1325 51.8763 17.8999C51.1503 18.6247 50.5834 19.6353 50.2825 20.7438C49.9394 22.0102 49.9568 23.3043 50.3297 24.3902C50.74 25.5739 51.5207 26.3789 52.5277 26.6573C52.7714 26.725 53.025 26.7601 53.2786 26.7601C54.1712 26.7601 55.0862 26.3388 55.8545 25.5714C56.5805 24.8466 57.1474 23.8359 57.4483 22.7275C57.7914 21.461 57.774 20.167 57.4011 19.0811C56.9908 17.8974 56.2101 17.0924 55.2031 16.814C54.9594 16.7463 54.7058 16.7112 54.4522 16.7112Z" fill="#1B1B1B"/>
<path d="M54.2758 20.8354C54.4967 20.2712 54.2222 19.6332 53.6628 19.4104C53.1034 19.1877 52.4708 19.4645 52.25 20.0287C52.0291 20.593 52.3036 21.231 52.863 21.4538C53.4224 21.6765 54.0549 21.3997 54.2758 20.8354Z" fill="white"/>
</svg>
